<svg width="176" height="137" viewBox="0 0 176 137" fill="none" xmlns="http://www.w3.org/2000/svg">
<path d="M175.7 77.6008L161.1 92.2008L131.8 121.501L117.2 136.101L88.0001 106.901L58.8 136.101L0.300049 77.6008L14.9001 63.0008L58.8 106.901L73.4001 92.2008L29.6001 48.4008L44.2001 33.8008L88.0001 77.6008L131.8 33.8008L146.4 48.4008L102.6 92.2008L117.2 106.901L161.1 63.0008L175.7 77.6008Z" fill="#D5B4FB"/>
<path d="M88.0001 49.5004C101.4 49.5004 112.3 38.6004 112.3 25.2004C112.3 11.8004 101.4 0.900391 88.0001 0.900391C74.6001 0.900391 63.7001 11.8004 63.7001 25.2004C63.7001 38.6004 74.6001 49.5004 88.0001 49.5004ZM88.0001 13.9004C94.3001 13.9004 99.3 19.0004 99.3 25.2004C99.3 31.4004 94.2001 36.5004 88.0001 36.5004C81.8001 36.5004 76.7001 31.4004 76.7001 25.2004C76.7001 19.0004 81.8001 13.9004 88.0001 13.9004Z" fill="#D5B4FB"/>
</svg>
