<svg xmlns="http://www.w3.org/2000/svg" version="1.1" xmlns:xlink="http://www.w3.org/1999/xlink" width="512" height="512" x="0" y="0" viewBox="0 0 64 64" style="enable-background:new 0 0 512 512" xml:space="preserve" class=""><g><path d="M32 64c17.64 0 32-14.36 32-32S49.64 0 32 0 0 14.36 0 32s14.36 32 32 32zm1.57-15.43c3.1.08 6.12.4 8.98.93-2.16 5.99-5.37 10.18-8.98 11.14zm0-3.15V33.57h11.79c-.12 4.66-.79 9.05-1.85 12.91-3.16-.61-6.51-.98-9.94-1.06zm0-14.99V18.58c3.43-.09 6.78-.45 9.93-1.06 1.07 3.86 1.73 8.25 1.85 12.91zm0-15V3.36c3.6.96 6.81 5.15 8.98 11.14-2.85.54-5.87.85-8.98.93zm-3.14 0c-3.11-.08-6.13-.4-8.98-.93 2.16-5.99 5.37-10.18 8.98-11.14zm0 3.15v11.85H18.64c.12-4.66.79-9.05 1.85-12.91 3.16.61 6.5.98 9.94 1.06zm0 14.99v11.85c-3.44.09-6.78.45-9.93 1.06-1.07-3.85-1.73-8.25-1.85-12.91zm0 15v12.07c-3.6-.96-6.82-5.15-8.98-11.14 2.84-.54 5.86-.85 8.98-.93zm-6.94 11a28.997 28.997 0 0 1-11.79-7.08c1.98-.93 4.22-1.69 6.61-2.3 1.35 3.82 3.12 7.02 5.18 9.38zm22.19-9.38c2.4.62 4.62 1.39 6.6 2.31a28.839 28.839 0 0 1-11.77 7.07c2.06-2.35 3.82-5.56 5.17-9.38zm.93-3c1.11-4.07 1.78-8.68 1.9-13.61h12.3a28.739 28.739 0 0 1-6.34 16.5c-2.33-1.17-4.98-2.14-7.86-2.89zm1.9-16.76c-.12-4.94-.79-9.55-1.9-13.61 2.88-.75 5.53-1.72 7.85-2.89 3.68 4.57 6.01 10.28 6.34 16.5zm-2.83-16.62c-1.34-3.82-3.11-7.03-5.17-9.38C45 5.82 49.02 8.28 52.28 11.5c-1.98.92-4.21 1.69-6.6 2.31zm-27.36 0c-2.4-.62-4.62-1.38-6.6-2.31C14.98 8.27 19 5.82 23.49 4.43c-2.06 2.35-3.82 5.56-5.17 9.38zm-.93 3c-1.11 4.07-1.78 8.68-1.9 13.61H3.19c.34-6.23 2.66-11.94 6.34-16.5 2.33 1.17 4.98 2.14 7.86 2.89zm-1.9 16.76c.12 4.94.79 9.55 1.9 13.61-2.88.75-5.53 1.72-7.85 2.89C5.86 45.5 3.53 39.8 3.2 33.57z" fill="#d5b4fb" opacity="1" data-original="#000000" class=""></path></g></svg>