<svg width="32" height="32" viewBox="0 0 12 12" fill="none" xmlns="http://www.w3.org/2000/svg">
<circle cx="6" cy="6" r="6" fill="black"/>
<path fill-rule="evenodd" clip-rule="evenodd" d="M7.10755 4.10759C7.10755 4.72152 6.61388 5.21519 5.99996 5.21519C5.38603 5.21519 4.89236 4.72152 4.89236 4.10759C4.89236 3.49367 5.38603 3 5.99996 3C6.61388 3 7.10755 3.49367 7.10755 4.10759ZM6.51894 4.10759C6.51894 3.82278 6.28477 3.58861 5.99996 3.58861C5.71515 3.58861 5.48097 3.82278 5.48097 4.10759C5.48097 4.3924 5.71515 4.62658 5.99996 4.62658C6.28477 4.62658 6.51894 4.3924 6.51894 4.10759ZM9.32911 7.16456L10 6.5L9.32911 5.83544L7.32911 7.82911L6.66456 7.16456L8.66456 5.16456L8 4.5L6 6.5L4 4.5L3.33544 5.16456L5.33544 7.16456L4.66456 7.82911L2.67089 5.83544L2 6.5L4.66456 9.16456L6 7.82911L7.32911 9.16456L8 8.5L9.32911 7.16456Z" fill="#D5B4FB"/>
<path d="M6 11.2C8.87188 11.2 11.2 8.87188 11.2 6C11.2 3.12812 8.87188 0.8 6 0.8C3.12812 0.8 0.8 3.12812 0.8 6C0.8 8.87188 3.12812 11.2 6 11.2Z" stroke="#D5B4FB" stroke-width="0.4"/>
</svg>
