<svg width="200" height="62.5" viewBox="0 0 616 100" fill="#fff" xmlns="http://www.w3.org/2000/svg">
<path d="M206.149 50C206.149 60.6891 202.268 69.5966 194.507 76.7227L202.837 85.2941H193.303L188.988 80.8571C183.435 84.2857 177.48 86 171.124 86C162.092 86 153.964 82.5714 146.738 75.7143C139.579 68.7899 136 60.2185 136 50C136 39.7815 139.579 31.2437 146.738 24.3866C153.964 17.4622 162.092 14 171.124 14C180.357 14 188.486 17.4286 195.511 24.2857C202.603 31.1429 206.149 39.7143 206.149 50ZM171.124 78.0336C175.607 78.0336 179.655 77.0252 183.267 75.0084L168.415 59.6807H177.949L188.887 70.9748C194.507 65.5294 197.317 58.5378 197.317 50C197.317 41.7983 194.741 35.0756 189.59 29.8319C184.505 24.521 178.35 21.8655 171.124 21.8655C164.3 21.8655 158.212 24.521 152.86 29.8319C147.574 35.1429 144.932 41.8655 144.932 50C144.932 58.0672 147.574 64.7563 152.86 70.0672C158.212 75.3782 164.3 78.0336 171.124 78.0336Z" fill="#fff"/>
<path d="M254.804 32.8572H262.832V85.2942H254.804V72.5883C254.135 75.4791 252.128 78.4371 248.782 81.4623C245.437 84.4875 241.222 86.0001 236.138 86.0001C230.518 86.0001 225.868 84.185 222.188 80.5547C218.508 76.9245 216.669 71.311 216.669 63.7144V32.8572H224.697V63.5127C224.697 68.8236 225.834 72.7228 228.109 75.2102C230.384 77.6976 233.461 78.9413 237.342 78.9413C241.691 78.9413 245.471 77.2606 248.682 73.8993C251.893 70.4707 253.934 66.7732 254.804 62.8068V32.8572Z" fill="#fff"/>
<path d="M283.324 14.7058V22.2688H275.196V14.7058H283.324ZM283.324 32.857V85.294H275.196V32.857H283.324Z" fill="#fff"/>
<path d="M304.579 14.7058V85.294H296.451V14.7058H304.579Z" fill="#fff"/>
<path d="M325.356 14.7058V85.294H317.227V14.7058H325.356Z" fill="#fff"/>
<path d="M391.895 85.294L383.164 65.6301H351.853L343.122 85.294H334.191L366.605 14.7058H368.412L400.726 85.294H391.895ZM354.964 58.5713H380.053L367.509 30.1343L354.964 58.5713Z" fill="#fff"/>
<path d="M446.401 32.8572H454.429V85.2942H446.401V72.5883C445.732 75.4791 443.724 78.4371 440.379 81.4623C437.034 84.4875 432.819 86.0001 427.734 86.0001C422.115 86.0001 417.465 84.185 413.785 80.5547C410.105 76.9245 408.265 71.311 408.265 63.7144V32.8572H416.294V63.5127C416.294 68.8236 417.431 72.7228 419.706 75.2102C421.981 77.6976 425.058 78.9413 428.939 78.9413C433.287 78.9413 437.068 77.2606 440.279 73.8993C443.49 70.4707 445.531 66.7732 446.401 62.8068V32.8572Z" fill="#fff"/>
<path d="M507.135 14.7058H515.164V85.294H507.135V75.0083C505.73 78.2352 503.389 80.8907 500.11 82.9747C496.832 84.9915 493.186 85.9999 489.172 85.9999C482.883 85.9999 477.196 83.6133 472.111 78.8402C467.027 74.0671 464.484 67.4789 464.484 59.0755C464.484 54.773 465.254 50.8738 466.792 47.378C468.331 43.815 470.305 40.9915 472.713 38.9075C475.122 36.7562 477.731 35.1091 480.541 33.9663C483.418 32.8234 486.295 32.252 489.172 32.252C493.253 32.252 496.933 33.2268 500.211 35.1764C503.489 37.1259 505.797 39.6806 507.135 42.8402V14.7058ZM477.932 73.6974C481.545 77.1932 485.626 78.9411 490.175 78.9411C494.725 78.9411 498.739 77.2604 502.218 73.8991C505.697 70.4705 507.436 65.5293 507.436 59.0755C507.436 52.6217 505.697 47.7142 502.218 44.3528C498.739 40.9915 494.725 39.3108 490.175 39.3108C485.626 39.3108 481.545 41.0587 477.932 44.5545C474.319 48.0503 472.513 52.8907 472.513 59.0755C472.513 65.2604 474.319 70.1344 477.932 73.6974Z" fill="#fff"/>
<path d="M535.095 14.7058V22.2688H526.967V14.7058H535.095ZM535.095 32.857V85.294H526.967V32.857H535.095Z" fill="#fff"/>
<path d="M563.777 78.8403C566.051 78.8403 568.36 78.3025 570.701 77.2269V84.084C568.293 85.2941 565.315 85.8992 561.77 85.8992C555.012 85.8992 551.634 82.1681 551.634 74.7059V39.5126H545.211V32.8571H551.634V23.7815H559.662V32.8571H570.601V39.5126H559.662V74C559.662 77.2269 561.034 78.8403 563.777 78.8403Z" fill="#fff"/>
<path d="M606.868 45.3612C604.526 41.1932 601.047 39.1091 596.431 39.1091C593.888 39.1091 591.814 39.7814 590.209 41.1259C588.67 42.4033 587.9 43.9831 587.9 45.8654C587.9 47.6133 588.436 49.0923 589.506 50.3024C590.644 51.5125 592.584 52.5881 595.327 53.5293L600.646 55.4453C605.797 57.2604 609.644 59.2436 612.186 61.3949C614.729 63.5461 616 66.7058 616 70.8738C616 75.4453 614.026 79.1091 610.079 81.8654C606.132 84.6217 601.716 85.9999 596.832 85.9999C592.216 85.9999 588.001 84.7561 584.187 82.2687C580.374 79.7813 577.898 76.4536 576.761 72.2855L583.786 70.3695C584.656 72.9914 586.328 75.1091 588.804 76.7226C591.279 78.2688 593.955 79.0419 596.832 79.0419C599.642 79.0419 602.151 78.3024 604.359 76.8234C606.567 75.2772 607.67 73.294 607.67 70.8738C607.67 68.7898 606.968 67.0755 605.563 65.731C604.158 64.3865 602.017 63.2099 599.14 62.2015L593.119 60.0839C588.302 58.336 584.856 56.3864 582.782 54.2351C580.708 52.0838 579.671 49.3276 579.671 45.9663C579.671 42.0671 581.277 38.8065 584.488 36.1847C587.767 33.5628 591.714 32.252 596.33 32.252C604.693 32.252 610.648 35.9831 614.194 43.4453L606.868 45.3612Z" fill="#fff"/>
<path d="M105.97 56.0862L60.06 100L56 93.7931L99.411 50.9655V50.8103L65.8377 16.9827L68.3362 10L108 50.5L105.97 56.0862Z" fill="#fff"/>
<path d="M1.87952 44.069L47.9277 0L52 6.2069L8.45784 49.1897V49.3448L42.2891 83.0173L39.7831 90L0 49.6552L1.87952 44.069Z" fill="#fff"/>
<path fill-rule="evenodd" clip-rule="evenodd" d="M35 71C35.4681 69.3468 36.0923 67.8589 36.7164 66.371C39.3692 60.5848 42.1421 55.46 46.0432 50.6657C51.1927 44.5489 56.0138 38.0362 62.7041 33.7652C65.7403 31.8269 69.6903 30.2049 72.9672 29.0477C72.6551 29.213 73.1232 28.8824 72.9672 29.0477L71.4167 31.8269C69.4375 35.0577 68.25 37.4808 66.3645 40.2506C66.2085 40.5812 66.0524 40.5812 65.7403 40.5812C64.492 40.9118 63.0876 41.2425 61.6832 41.2425C62.1514 41.9038 62.9316 42.2344 63.5557 42.565C63.8678 42.7304 64.492 42.7304 64.648 43.2263C64.648 43.5569 64.1799 44.053 64.0239 44.3836C63.7118 45.2101 63.0876 45.7061 62.3074 45.8714C61.0591 46.202 59.8107 46.5327 58.4063 46.5327C58.4063 46.8633 58.5624 46.8633 58.7184 47.0287C59.4986 47.69 60.4349 48.1859 61.3711 48.5165C61.6832 48.6819 61.6832 48.8471 61.5272 49.1778C61.2151 50.0044 60.5909 50.3351 59.8107 50.5003C57.7822 51.1616 55.7536 51.6576 53.725 51.8229H53.569C54.0371 52.3189 54.5052 52.6495 54.9734 52.9802C55.9096 53.4761 56.8459 53.8067 57.9382 54.1374C58.0942 54.1374 58.2503 54.3027 58.0942 54.468C57.314 55.6253 56.5338 56.7826 55.4415 57.6091C54.6613 58.4358 53.725 58.4358 52.6327 58.4358H49.0438C48.1076 58.4358 47.1713 58.4358 46.2351 58.601C45.4548 58.7663 44.8307 59.0969 44.3625 59.7582C42.8021 61.5768 41.8659 63.8912 40.7736 66.0403L40.3054 67.0322C39.9933 68.3549 39.2131 69.0162 38.1208 69.5121C37.1846 69.6773 36.0923 70.3386 35 71Z" fill="#fff"/>
</svg>
