<svg id="Layer_1" enable-background="new 0 0 512 512" height="512" viewBox="0 0 512 512" width="512" xmlns="http://www.w3.org/2000/svg">
<path clip-rule="evenodd" d="m353.499 274.487c-62.132 0-112.5 50.368-112.5 112.5s50.368 112.5 112.5 112.5 112.5-50.368 112.5-112.5-50.368-112.5-112.5-112.5zm-234.932-28.319 123.604-88.637 123.605 88.638v14.914c-4.041-.389-8.135-.595-12.277-.595-29.349 0-56.363 10-77.826 26.774-5.642-8.252-15.125-13.686-25.838-13.686h-15.327c-17.227 0-31.278 14.051-31.278 31.279v101.897h-60.893c-13.072 0-23.77-10.696-23.77-23.769zm-33.363-96.872c-3.141 2.235-7.5 1.501-9.734-1.64-2.235-3.141-1.501-7.5 1.64-9.734l161.014-114.988c2.527-1.798 5.841-1.674 8.204.078l70.039 49.774 69.341-43.761-28.181-2.592c-3.836-.347-6.664-3.739-6.316-7.574.347-3.836 3.739-6.664 7.574-6.317l48.486 4.459c3.836.347 6.664 3.739 6.316 7.575-.04.441-.121.868-.237 1.28l.018.005-13.661 47.529c-1.057 3.715-4.926 5.87-8.641 4.813s-5.87-4.926-4.813-8.641l8.558-29.776-74.802 47.208c-2.34 1.561-5.494 1.607-7.922-.12l-69.908-49.681zm1.925 102.189 155.042-111.182 155.042 111.182c11.669 8.359 27.905 5.676 36.264-5.993s5.676-27.905-5.993-36.264l-169.717-121.706c-8.831-6.626-21.279-7.1-30.731-.33l-170.178 122.036c-11.669 8.359-14.352 24.595-5.993 36.264s24.595 14.352 36.264 5.993zm279.048 127.206h-32.855v-23.937h32.004c3.279 0 6.267 1.348 8.438 3.519s3.519 5.158 3.519 8.438c0 3.302-1.347 6.299-3.516 8.47-1.988 1.99-4.651 3.293-7.59 3.51zm-32.856 16.637h38.131c3.895.384 7.175 1.692 9.331 3.846 1.848 1.846 2.953 4.551 2.953 8.089 0 3.279-1.348 6.267-3.519 8.438s-5.159 3.519-8.438 3.519h-38.458zm39.744-62.915v6.773c4.772 1.348 9.046 3.909 12.461 7.324 5.179 5.178 8.393 12.329 8.393 20.201 0 6.43-2.157 12.382-5.782 17.173 1.568 1.03 3.023 2.207 4.345 3.527 4.938 4.933 7.892 11.612 7.892 19.852 0 7.872-3.215 15.022-8.393 20.201-4.888 4.888-11.533 8.026-18.883 8.362v5.735c0 2.618-2.135 4.753-4.753 4.753h-7.131c-2.618 0-4.753-2.135-4.753-4.753v-5.704h-11.837v5.704c0 2.618-2.135 4.753-4.753 4.753h-7.131c-2.618 0-4.753-2.135-4.753-4.753v-5.704h-16.608c-2.618 0-4.753-2.135-4.753-4.753v-7.13c0-2.618 2.135-4.753 4.753-4.753h5.307v-64.466h-5.307c-2.618 0-4.753-2.135-4.753-4.753v-7.13c0-2.618 2.135-4.754 4.753-4.754h16.641v-5.704c0-2.618 2.135-4.753 4.753-4.753h7.065c2.618 0 4.753 2.135 4.753 4.753v5.704h11.902v-5.704c0-2.618 2.135-4.753 4.753-4.753h7.065c2.619-.001 4.754 2.134 4.754 4.752zm-19.566-26.316c22.338 0 42.561 9.054 57.199 23.692s23.692 34.861 23.692 57.199-9.054 42.561-23.692 57.199-34.861 23.692-57.199 23.692-42.561-9.054-57.199-23.692c-14.637-14.638-23.692-34.861-23.692-57.199s9.054-42.561 23.692-57.199 34.861-23.692 57.199-23.692zm-67.098 13.793c17.172-17.172 40.895-27.793 67.097-27.793s49.926 10.621 67.098 27.793 27.793 40.895 27.793 67.097c0 26.203-10.621 49.926-27.793 67.098s-40.895 27.793-67.098 27.793c-26.202 0-49.925-10.621-67.097-27.793s-27.793-40.895-27.793-67.098c0-26.202 10.622-49.925 27.793-67.097z" fill-rule="evenodd" fill="#ffffff" />
</svg>
