<svg xmlns="http://www.w3.org/2000/svg" xmlns:xlink="http://www.w3.org/1999/xlink" id="svg" width="200" height="62.5" viewBox="0, 0, 400,119.59910913140313"><g id="svgg"><path id="path0" d="M33.899 5.458 C 33.450 5.673,32.640 6.667,32.914 6.667 C 32.968 6.667,32.860 6.831,32.673 7.031 C 32.354 7.374,32.267 7.579,32.314 7.875 C 32.324 7.944,32.258 8.000,32.167 8.000 C 32.075 8.000,32.000 8.103,32.000 8.230 C 32.000 8.356,31.886 8.554,31.746 8.670 C 31.606 8.786,31.525 8.914,31.566 8.955 C 31.606 8.995,31.492 9.199,31.310 9.407 C 31.129 9.615,30.854 10.023,30.699 10.313 C 30.544 10.604,30.158 11.327,29.841 11.921 C 29.524 12.514,29.207 13.000,29.135 13.000 C 29.063 13.000,28.920 13.338,28.816 13.750 C 28.712 14.162,28.553 14.500,28.462 14.500 C 28.372 14.500,28.341 14.612,28.394 14.750 C 28.446 14.887,28.410 15.000,28.313 15.000 C 28.038 15.000,27.528 15.698,27.403 16.248 C 27.341 16.521,27.196 16.821,27.082 16.914 C 26.854 17.100,25.798 19.000,25.922 19.000 C 25.965 19.000,25.850 19.150,25.667 19.333 C 25.483 19.517,25.333 19.771,25.333 19.899 C 25.333 20.027,25.230 20.170,25.105 20.219 C 24.979 20.267,24.824 20.513,24.761 20.765 C 24.698 21.017,24.501 21.408,24.323 21.634 C 24.145 21.860,24.000 22.138,24.000 22.252 C 24.000 22.366,23.887 22.553,23.750 22.667 C 23.613 22.781,23.500 22.981,23.500 23.111 C 23.500 23.241,23.353 23.505,23.172 23.699 C 22.992 23.892,22.884 24.114,22.932 24.192 C 22.980 24.270,22.949 24.333,22.863 24.333 C 22.726 24.333,22.529 24.797,22.530 25.114 C 22.530 25.172,22.411 25.287,22.265 25.368 C 22.119 25.450,22.000 25.593,22.000 25.687 C 22.000 25.781,21.884 25.973,21.743 26.115 C 21.601 26.256,21.513 26.455,21.547 26.557 C 21.581 26.659,21.543 26.819,21.463 26.913 C 20.960 27.502,20.184 28.893,20.275 29.041 C 20.345 29.153,20.304 29.168,20.164 29.082 C 20.004 28.983,19.973 29.021,20.050 29.223 C 20.113 29.388,20.074 29.501,19.953 29.502 C 19.841 29.503,19.617 29.784,19.454 30.127 C 19.008 31.069,18.629 31.740,18.493 31.833 C 18.278 31.980,17.858 33.135,17.973 33.263 C 18.033 33.331,18.001 33.340,17.900 33.282 C 17.661 33.146,17.256 33.906,17.423 34.177 C 17.504 34.308,17.484 34.343,17.367 34.271 C 17.266 34.209,17.105 34.303,17.010 34.482 C 16.882 34.720,16.891 34.829,17.043 34.890 C 17.171 34.942,17.144 34.979,16.973 34.987 C 16.814 34.994,16.534 35.337,16.315 35.792 C 16.106 36.227,15.841 36.678,15.728 36.793 C 15.615 36.908,15.474 37.152,15.416 37.334 C 15.358 37.517,15.241 37.667,15.155 37.667 C 15.070 37.667,14.999 37.798,14.997 37.958 C 14.995 38.119,14.768 38.583,14.492 38.991 C 14.216 39.398,13.947 39.905,13.894 40.116 C 13.841 40.327,13.735 40.500,13.660 40.500 C 13.584 40.500,13.470 40.665,13.406 40.867 C 13.342 41.069,13.186 41.338,13.060 41.464 C 12.934 41.590,12.873 41.762,12.925 41.847 C 12.977 41.931,12.940 42.000,12.843 42.000 C 12.746 42.000,12.667 42.106,12.667 42.236 C 12.667 42.366,12.588 42.499,12.491 42.531 C 12.394 42.563,12.296 42.723,12.272 42.885 C 12.248 43.048,12.119 43.309,11.985 43.466 C 11.692 43.807,11.236 44.861,11.298 45.054 C 11.322 45.130,11.267 45.145,11.176 45.089 C 11.084 45.033,10.963 45.172,10.907 45.398 C 10.850 45.624,10.693 45.852,10.558 45.903 C 10.423 45.955,10.359 46.073,10.416 46.165 C 10.473 46.258,10.436 46.333,10.333 46.333 C 10.231 46.333,10.194 46.409,10.251 46.501 C 10.308 46.593,10.242 46.712,10.104 46.765 C 9.967 46.818,9.891 46.958,9.937 47.076 C 9.982 47.194,9.902 47.335,9.760 47.390 C 9.617 47.445,9.500 47.595,9.500 47.724 C 9.500 47.854,9.387 48.053,9.250 48.167 C 9.112 48.281,9.000 48.517,9.000 48.692 C 9.000 48.867,8.890 49.053,8.756 49.104 C 8.622 49.155,8.462 49.359,8.399 49.557 C 8.337 49.755,8.109 50.178,7.893 50.497 C 7.677 50.816,7.500 51.247,7.500 51.455 C 7.500 51.663,7.425 51.833,7.333 51.833 C 7.242 51.833,7.167 51.946,7.167 52.083 C 7.167 52.221,7.087 52.333,6.990 52.333 C 6.893 52.333,6.860 52.408,6.917 52.500 C 6.973 52.592,6.903 52.667,6.760 52.667 C 6.617 52.667,6.500 52.746,6.500 52.843 C 6.500 52.940,6.582 52.969,6.683 52.906 C 6.812 52.827,6.810 52.898,6.677 53.147 C 6.573 53.341,6.416 53.500,6.327 53.500 C 6.239 53.500,6.167 53.604,6.167 53.732 C 6.167 53.860,6.061 54.005,5.932 54.054 C 5.804 54.104,5.645 54.393,5.579 54.697 C 5.514 55.001,5.416 55.325,5.362 55.416 C 5.159 55.757,5.197 56.554,5.428 56.785 C 5.559 56.916,5.667 57.131,5.667 57.262 C 5.667 57.467,5.865 57.540,6.273 57.486 C 6.332 57.478,6.439 57.568,6.513 57.687 C 6.597 57.824,7.112 57.923,7.921 57.959 C 8.932 58.004,9.169 57.971,9.066 57.799 C 8.964 57.631,8.989 57.626,9.176 57.776 C 9.508 58.043,17.649 58.038,17.990 57.771 C 18.173 57.628,18.201 57.632,18.109 57.786 C 17.950 58.051,20.193 58.029,20.372 57.764 C 20.456 57.641,20.496 57.650,20.497 57.792 C 20.499 57.936,20.819 57.999,21.542 57.997 C 22.258 57.996,22.506 57.946,22.335 57.838 C 22.139 57.714,22.163 57.687,22.449 57.709 C 22.648 57.724,22.774 57.795,22.729 57.868 C 22.684 57.941,22.768 58.000,22.917 58.000 C 23.088 58.000,23.141 57.924,23.061 57.792 C 22.966 57.634,22.994 57.628,23.176 57.765 C 23.476 57.993,25.068 58.078,24.933 57.860 C 24.873 57.762,25.082 57.758,25.485 57.849 C 26.313 58.035,28.186 57.995,28.458 57.786 C 28.596 57.680,28.667 57.689,28.667 57.812 C 28.667 57.928,28.971 57.984,29.481 57.960 L 30.296 57.923 30.322 56.143 C 30.348 54.386,30.208 53.892,29.798 54.302 C 29.682 54.418,29.483 54.422,29.201 54.315 C 28.906 54.202,28.742 54.212,28.660 54.345 C 28.595 54.450,28.501 54.470,28.451 54.389 C 28.378 54.271,24.959 54.227,24.667 54.340 C 24.621 54.358,24.508 54.354,24.417 54.331 C 24.065 54.243,19.972 54.243,19.918 54.331 C 19.887 54.382,19.611 54.403,19.305 54.377 C 17.543 54.229,17.216 54.225,16.875 54.352 C 16.660 54.432,16.317 54.422,16.072 54.329 C 15.793 54.223,15.538 54.224,15.336 54.332 C 15.127 54.444,15.008 54.441,14.968 54.322 C 14.927 54.199,14.769 54.200,14.441 54.324 C 14.183 54.422,13.900 54.458,13.812 54.403 C 13.533 54.231,12.337 54.192,12.239 54.352 C 12.186 54.436,12.055 54.451,11.947 54.384 C 11.654 54.203,10.768 54.225,10.628 54.417 C 10.553 54.518,10.504 54.498,10.503 54.365 C 10.501 54.245,10.425 54.193,10.333 54.250 C 10.124 54.379,10.125 54.336,10.350 53.692 C 10.450 53.403,10.599 53.208,10.681 53.259 C 10.763 53.309,10.785 53.234,10.730 53.092 C 10.676 52.950,10.714 52.833,10.816 52.833 C 10.917 52.833,11.000 52.732,11.000 52.609 C 11.000 52.485,11.155 52.205,11.345 51.986 C 11.535 51.767,11.732 51.382,11.782 51.130 C 11.833 50.878,11.940 50.713,12.020 50.763 C 12.101 50.812,12.167 50.733,12.167 50.586 C 12.167 50.439,12.314 50.161,12.494 49.968 C 12.674 49.774,12.782 49.553,12.734 49.475 C 12.686 49.397,12.734 49.333,12.841 49.333 C 12.948 49.333,12.992 49.221,12.940 49.083 C 12.887 48.946,12.935 48.833,13.047 48.832 C 13.284 48.831,13.699 48.020,13.569 47.810 C 13.520 47.731,13.589 47.667,13.722 47.667 C 13.855 47.667,14.012 47.544,14.069 47.393 C 14.147 47.192,14.116 47.159,13.954 47.268 C 13.833 47.350,13.864 47.297,14.022 47.150 C 14.180 47.003,14.618 46.293,14.996 45.572 C 15.373 44.850,15.735 44.220,15.800 44.172 C 16.031 43.997,16.665 42.632,16.579 42.493 C 16.530 42.414,16.634 42.273,16.809 42.180 C 17.163 41.990,17.470 41.412,17.123 41.587 C 17.010 41.644,17.048 41.584,17.208 41.452 C 17.369 41.321,17.500 41.169,17.500 41.114 C 17.500 41.005,18.222 39.877,18.508 39.537 C 18.607 39.420,18.699 39.182,18.712 39.007 C 18.725 38.833,18.795 38.726,18.868 38.771 C 18.941 38.816,19.000 38.745,19.000 38.614 C 19.000 38.482,19.108 38.285,19.239 38.176 C 19.371 38.066,19.527 37.757,19.586 37.488 C 19.645 37.220,19.753 37.000,19.826 37.000 C 19.900 37.000,20.059 36.756,20.180 36.458 C 20.302 36.160,20.510 35.834,20.643 35.734 C 20.776 35.633,20.831 35.464,20.766 35.359 C 20.700 35.253,20.726 35.167,20.823 35.167 C 20.921 35.167,21.000 35.050,21.000 34.907 C 21.000 34.764,21.075 34.693,21.167 34.750 C 21.258 34.807,21.333 34.774,21.333 34.677 C 21.333 34.579,21.261 34.500,21.172 34.500 C 21.083 34.500,21.054 34.387,21.106 34.250 C 21.159 34.112,21.304 34.000,21.429 34.000 C 21.572 34.000,21.617 33.898,21.550 33.723 C 21.478 33.535,21.507 33.485,21.640 33.567 C 21.755 33.638,21.880 33.564,21.942 33.386 C 22.245 32.528,22.694 31.667,22.837 31.667 C 22.927 31.667,23.000 31.560,23.000 31.431 C 23.000 31.301,23.061 31.169,23.135 31.139 C 23.357 31.047,24.333 29.232,24.333 28.910 C 24.333 28.746,24.382 28.660,24.442 28.720 C 24.586 28.863,25.025 28.008,24.906 27.816 C 24.855 27.734,24.912 27.667,25.032 27.667 C 25.275 27.667,26.106 26.217,25.952 26.063 C 25.898 26.009,26.029 25.789,26.245 25.574 C 26.460 25.359,26.724 24.916,26.831 24.590 C 26.948 24.235,27.100 24.042,27.208 24.109 C 27.325 24.181,27.351 24.120,27.281 23.938 C 27.214 23.762,27.266 23.618,27.419 23.559 C 27.555 23.507,27.667 23.360,27.667 23.232 C 27.667 23.104,27.746 23.000,27.843 23.000 C 27.940 23.000,27.973 22.924,27.916 22.832 C 27.859 22.740,27.929 22.547,28.073 22.403 C 28.216 22.260,28.333 22.036,28.333 21.905 C 28.333 21.774,28.397 21.667,28.475 21.667 C 28.650 21.667,29.712 19.669,29.540 19.662 C 29.472 19.659,29.549 19.579,29.712 19.485 C 29.874 19.390,29.968 19.250,29.921 19.174 C 29.874 19.097,29.947 18.992,30.084 18.939 C 30.221 18.887,30.333 18.729,30.333 18.589 C 30.333 18.448,30.417 18.333,30.519 18.333 C 30.622 18.333,30.668 18.188,30.621 18.011 C 30.571 17.820,30.636 17.650,30.779 17.595 C 30.912 17.544,30.974 17.427,30.917 17.335 C 30.860 17.242,30.939 17.167,31.091 17.167 C 31.264 17.167,31.334 17.076,31.277 16.927 C 31.227 16.796,31.260 16.663,31.352 16.633 C 31.506 16.581,31.623 16.219,31.654 15.698 C 31.661 15.579,31.743 15.528,31.837 15.585 C 31.930 15.643,32.117 15.428,32.251 15.107 C 32.385 14.786,32.571 14.476,32.664 14.418 C 32.757 14.361,32.833 14.172,32.833 13.998 C 32.833 13.825,32.953 13.616,33.099 13.535 C 33.245 13.453,33.417 13.130,33.481 12.818 C 33.545 12.506,33.661 12.274,33.738 12.303 C 33.816 12.332,33.998 12.107,34.143 11.803 C 34.450 11.160,34.833 10.712,34.833 10.998 C 34.833 11.102,34.908 11.140,35.000 11.083 C 35.092 11.027,35.167 11.087,35.167 11.218 C 35.167 11.348,35.334 11.668,35.539 11.928 C 35.743 12.188,35.824 12.347,35.718 12.282 C 35.471 12.129,36.187 13.543,36.440 13.706 C 36.544 13.774,36.678 14.024,36.738 14.262 C 36.798 14.500,37.033 14.881,37.260 15.108 C 37.487 15.336,37.630 15.592,37.577 15.677 C 37.524 15.763,37.602 15.833,37.750 15.833 C 37.898 15.833,37.977 15.903,37.924 15.988 C 37.836 16.131,38.130 16.979,38.334 17.167 C 38.567 17.381,38.993 18.167,38.879 18.172 C 38.808 18.175,38.881 18.253,39.042 18.347 C 39.202 18.440,39.333 18.625,39.333 18.758 C 39.333 18.891,39.406 19.000,39.495 19.000 C 39.584 19.000,39.613 19.112,39.560 19.250 C 39.508 19.387,39.540 19.500,39.633 19.500 C 39.725 19.500,39.881 19.731,39.979 20.013 C 40.080 20.300,40.235 20.478,40.333 20.417 C 40.429 20.357,40.492 20.370,40.471 20.446 C 40.398 20.716,40.694 21.336,40.849 21.240 C 40.937 21.186,40.988 21.205,40.962 21.283 C 40.914 21.432,41.505 22.859,41.674 23.000 C 41.729 23.046,41.825 23.219,41.886 23.386 C 41.951 23.561,42.079 23.638,42.192 23.568 C 42.326 23.485,42.356 23.562,42.288 23.820 C 42.214 24.103,42.250 24.170,42.437 24.098 C 42.573 24.046,42.642 24.072,42.591 24.155 C 42.470 24.351,42.765 25.122,43.084 25.441 C 43.221 25.578,43.333 25.798,43.333 25.929 C 43.333 26.060,43.465 26.168,43.625 26.169 C 43.874 26.171,43.880 26.195,43.667 26.333 C 43.500 26.441,43.486 26.496,43.625 26.497 C 43.740 26.499,43.833 26.609,43.833 26.742 C 43.833 26.876,44.016 27.168,44.240 27.391 C 44.464 27.615,44.603 27.841,44.551 27.894 C 44.498 27.946,44.593 28.198,44.762 28.453 C 44.931 28.708,45.223 29.202,45.410 29.550 C 45.597 29.898,46.007 30.663,46.321 31.250 C 46.636 31.836,46.954 32.278,47.030 32.232 C 47.105 32.185,47.167 32.301,47.167 32.490 C 47.167 32.679,47.246 32.833,47.343 32.833 C 47.440 32.833,47.473 32.908,47.417 33.000 C 47.360 33.092,47.435 33.167,47.583 33.167 C 47.732 33.167,47.810 33.237,47.757 33.322 C 47.605 33.567,48.178 34.619,48.565 34.807 C 48.759 34.901,48.827 34.983,48.717 34.989 C 48.424 35.005,48.800 36.000,49.100 36.000 C 49.228 36.000,49.318 36.056,49.300 36.125 C 49.242 36.344,49.517 37.000,49.667 37.000 C 49.800 37.000,49.964 37.351,50.019 37.750 C 50.031 37.842,50.189 38.104,50.369 38.333 L 50.697 38.750 42.807 38.833 L 34.917 38.917 34.917 58.417 L 34.917 77.917 42.993 77.960 C 48.764 77.991,51.119 78.057,51.243 78.193 C 51.365 78.326,51.360 78.350,51.226 78.275 C 51.014 78.157,50.778 78.609,50.926 78.848 C 50.978 78.932,50.911 79.000,50.778 79.000 C 50.645 79.000,50.490 79.119,50.434 79.264 C 50.283 79.659,50.317 79.783,50.500 79.500 C 50.623 79.310,50.662 79.304,50.664 79.474 C 50.666 79.597,50.523 79.735,50.347 79.781 C 50.060 79.856,49.730 80.537,49.810 80.887 C 49.827 80.963,49.765 80.977,49.671 80.919 C 49.577 80.861,49.500 80.883,49.500 80.967 C 49.500 81.051,49.303 81.410,49.063 81.764 C 48.672 82.341,48.554 82.616,48.513 83.052 C 48.506 83.126,48.431 83.144,48.347 83.092 C 48.262 83.040,48.107 83.260,48.001 83.582 C 47.894 83.903,47.747 84.167,47.672 84.167 C 47.598 84.167,47.438 84.502,47.317 84.912 C 47.196 85.321,47.046 85.574,46.983 85.473 C 46.914 85.361,46.826 85.427,46.757 85.643 C 46.696 85.838,46.699 86.084,46.765 86.191 C 46.840 86.312,46.812 86.340,46.692 86.266 C 46.587 86.201,46.500 86.230,46.500 86.330 C 46.500 86.431,46.348 86.677,46.163 86.876 C 45.977 87.075,45.862 87.335,45.907 87.452 C 45.953 87.570,45.896 87.667,45.781 87.667 C 45.530 87.667,45.098 88.619,45.138 89.083 C 45.162 89.352,45.137 89.369,45.009 89.171 C 44.879 88.969,44.822 89.000,44.694 89.337 C 44.602 89.582,44.599 89.826,44.688 89.936 C 44.783 90.054,44.730 90.207,44.544 90.353 C 44.277 90.562,44.271 90.556,44.479 90.292 C 44.673 90.044,44.673 90.000,44.478 90.000 C 44.213 90.000,43.760 90.914,43.907 91.151 C 43.961 91.239,43.872 91.409,43.708 91.530 C 43.289 91.840,42.767 92.686,42.742 93.097 C 42.715 93.540,42.517 93.863,42.339 93.754 C 42.264 93.707,42.077 93.950,41.924 94.293 C 41.543 95.150,41.138 95.900,41.002 96.000 C 40.807 96.143,39.825 98.025,40.002 97.916 C 40.098 97.856,40.087 97.993,39.975 98.239 C 39.867 98.474,39.684 98.667,39.568 98.667 C 39.337 98.667,39.093 99.246,39.230 99.467 C 39.276 99.543,39.019 99.928,38.657 100.323 C 38.296 100.719,38.000 101.145,38.000 101.271 C 38.000 101.697,37.977 101.750,37.726 101.890 C 37.435 102.053,36.761 103.476,36.817 103.808 C 36.841 103.947,36.778 103.985,36.652 103.907 C 36.506 103.817,36.474 103.884,36.541 104.140 C 36.593 104.338,36.556 104.549,36.459 104.609 C 36.355 104.673,36.331 104.639,36.401 104.526 C 36.466 104.420,36.441 104.333,36.345 104.333 C 36.250 104.333,36.056 104.577,35.914 104.875 C 35.773 105.173,35.548 105.604,35.414 105.833 C 35.280 106.063,35.203 106.340,35.243 106.450 C 35.285 106.565,35.219 106.613,35.088 106.562 C 34.962 106.514,34.816 106.363,34.764 106.227 C 34.712 106.090,34.594 106.025,34.503 106.081 C 34.407 106.141,34.379 106.075,34.436 105.926 C 34.501 105.757,34.401 105.615,34.142 105.512 C 33.927 105.425,33.844 105.350,33.958 105.344 C 34.257 105.329,34.217 105.000,33.917 105.000 C 33.779 105.000,33.667 104.921,33.667 104.823 C 33.667 104.726,33.747 104.697,33.846 104.758 C 33.944 104.818,33.926 104.710,33.806 104.517 C 33.685 104.325,33.525 104.167,33.450 104.167 C 33.375 104.167,33.368 104.079,33.434 103.972 C 33.515 103.841,33.464 103.812,33.277 103.883 C 33.125 103.942,32.995 103.936,32.989 103.870 C 32.898 102.846,32.826 102.573,32.600 102.408 C 32.453 102.301,32.333 102.128,32.333 102.023 C 32.333 101.919,32.274 101.833,32.202 101.833 C 32.130 101.833,32.059 101.671,32.044 101.473 C 32.029 101.275,31.952 101.069,31.874 101.015 C 31.795 100.961,31.631 100.669,31.508 100.366 C 31.364 100.008,31.204 99.847,31.051 99.906 C 30.922 99.956,30.857 99.931,30.906 99.851 C 31.076 99.575,30.641 98.641,30.388 98.738 C 30.252 98.790,30.194 98.757,30.254 98.660 C 30.387 98.445,29.696 97.001,29.406 96.889 C 29.285 96.843,29.233 96.688,29.289 96.541 C 29.363 96.349,29.319 96.303,29.131 96.375 C 28.945 96.447,28.892 96.394,28.946 96.190 C 28.988 96.029,28.820 95.688,28.563 95.410 C 28.311 95.139,28.120 94.898,28.139 94.874 C 28.242 94.745,27.940 94.017,27.816 94.094 C 27.734 94.145,27.667 94.075,27.667 93.938 C 27.667 93.802,27.568 93.591,27.446 93.470 C 27.325 93.349,27.205 93.175,27.178 93.083 C 26.959 92.319,26.590 91.685,26.322 91.615 C 26.145 91.569,26.001 91.430,26.003 91.307 C 26.004 91.137,26.044 91.143,26.167 91.333 C 26.256 91.471,26.329 91.520,26.331 91.442 C 26.335 91.220,25.775 90.333,25.631 90.333 C 25.559 90.333,25.500 90.240,25.500 90.125 C 25.501 89.751,24.756 88.500,24.532 88.500 C 24.412 88.500,24.360 88.425,24.417 88.333 C 24.473 88.242,24.436 88.167,24.333 88.167 C 24.231 88.167,24.192 88.093,24.248 88.003 C 24.388 87.777,24.020 87.135,23.821 87.258 C 23.732 87.313,23.672 87.296,23.689 87.221 C 23.706 87.145,23.663 86.933,23.594 86.750 C 23.525 86.567,23.438 86.318,23.402 86.198 C 23.365 86.077,23.258 86.027,23.164 86.085 C 23.069 86.144,23.002 86.130,23.016 86.054 C 23.089 85.629,22.965 85.332,22.708 85.320 C 22.534 85.312,22.501 85.273,22.625 85.223 C 22.740 85.177,22.833 85.066,22.833 84.976 C 22.833 84.887,22.764 84.856,22.680 84.908 C 22.596 84.960,22.438 84.735,22.330 84.408 C 22.151 83.865,21.276 82.383,20.835 81.875 C 20.735 81.760,20.693 81.667,20.741 81.667 C 20.789 81.667,20.672 81.367,20.480 81.000 C 20.289 80.633,20.099 80.333,20.057 80.333 C 20.015 80.333,20.034 80.420,20.099 80.526 C 20.174 80.647,20.145 80.673,20.021 80.597 C 19.913 80.530,19.845 80.349,19.871 80.196 C 19.903 80.000,19.817 79.931,19.583 79.965 C 19.335 80.002,19.308 79.975,19.476 79.861 C 19.783 79.654,19.560 78.977,19.205 79.037 C 19.008 79.071,18.933 78.949,18.926 78.584 C 18.920 78.272,18.829 78.085,18.683 78.084 C 18.555 78.084,18.423 77.906,18.390 77.689 C 18.317 77.210,17.813 76.326,17.665 76.417 C 17.607 76.454,17.564 76.318,17.571 76.117 C 17.578 75.896,17.495 75.768,17.363 75.796 C 17.241 75.821,17.183 75.775,17.234 75.693 C 17.284 75.611,17.188 75.260,17.019 74.913 C 16.818 74.500,16.680 74.362,16.619 74.516 C 16.568 74.645,16.520 74.544,16.513 74.292 C 16.506 74.040,16.425 73.833,16.333 73.833 C 16.242 73.833,16.167 73.719,16.167 73.580 C 16.167 73.314,15.395 72.000,15.238 72.000 C 15.188 72.000,15.190 72.070,15.243 72.155 C 15.296 72.240,15.268 72.354,15.181 72.408 C 15.091 72.464,15.051 72.289,15.088 71.997 C 15.132 71.651,15.092 71.526,14.964 71.605 C 14.842 71.681,14.813 71.626,14.882 71.446 C 14.948 71.275,14.844 71.025,14.607 70.789 C 14.397 70.579,14.252 70.328,14.284 70.231 C 14.316 70.134,14.172 69.973,13.963 69.872 C 13.754 69.772,13.670 69.684,13.777 69.678 C 13.986 69.666,13.423 68.338,13.204 68.328 C 13.138 68.325,12.937 68.119,12.758 67.870 C 12.501 67.513,12.492 67.465,12.716 67.645 C 13.214 68.046,13.021 67.654,12.458 67.120 C 12.160 66.838,12.020 66.668,12.147 66.743 C 12.405 66.897,12.408 66.907,11.833 65.712 C 11.602 65.232,11.328 64.876,11.217 64.914 C 11.092 64.957,11.056 64.883,11.120 64.714 C 11.180 64.557,11.154 64.488,11.058 64.548 C 10.966 64.604,10.897 64.486,10.904 64.283 C 10.913 64.024,10.826 63.924,10.607 63.943 C 10.415 63.959,10.357 63.910,10.454 63.813 C 10.547 63.720,14.570 63.658,20.471 63.659 L 30.333 63.660 30.333 61.580 L 30.333 59.500 18.651 59.500 L 6.969 59.500 6.878 59.847 C 6.812 60.099,6.751 60.136,6.655 59.982 C 6.427 59.612,5.713 60.087,5.341 60.858 C 4.973 61.619,4.912 61.907,5.151 61.760 C 5.234 61.708,5.260 61.828,5.208 62.026 C 5.144 62.270,5.175 62.348,5.305 62.267 C 5.423 62.194,5.463 62.236,5.409 62.376 C 5.361 62.501,5.512 62.883,5.744 63.226 C 5.977 63.568,6.167 63.953,6.167 64.081 C 6.167 64.209,6.243 64.361,6.336 64.418 C 6.429 64.476,6.657 64.820,6.842 65.184 C 7.056 65.604,7.253 65.803,7.381 65.729 C 7.492 65.665,7.528 65.675,7.460 65.750 C 7.392 65.825,7.421 65.988,7.525 66.114 C 7.629 66.239,7.667 66.389,7.609 66.447 C 7.550 66.505,7.571 66.635,7.654 66.735 C 7.736 66.835,8.106 67.479,8.474 68.167 C 8.842 68.854,9.224 69.398,9.322 69.375 C 9.420 69.352,9.485 69.390,9.467 69.458 C 9.405 69.693,9.689 70.333,9.854 70.333 C 9.945 70.333,9.984 70.391,9.941 70.460 C 9.898 70.530,9.966 70.774,10.092 71.002 C 10.218 71.230,10.324 71.318,10.327 71.198 C 10.331 71.079,10.412 71.029,10.508 71.088 C 10.628 71.162,10.621 71.271,10.488 71.432 C 10.347 71.601,10.345 71.667,10.480 71.667 C 10.582 71.667,10.654 71.723,10.638 71.792 C 10.577 72.052,11.064 72.833,11.287 72.833 C 11.415 72.833,11.474 72.907,11.419 72.997 C 11.292 73.201,11.616 73.827,12.041 74.199 C 12.219 74.355,12.315 74.561,12.255 74.658 C 12.196 74.754,12.264 74.833,12.407 74.833 C 12.550 74.833,12.652 74.890,12.635 74.958 C 12.568 75.223,12.869 76.171,13.058 76.291 C 13.237 76.404,13.704 77.293,13.693 77.500 C 13.691 77.546,13.815 77.658,13.969 77.750 C 14.124 77.842,14.271 78.101,14.296 78.326 C 14.321 78.551,14.401 78.776,14.475 78.826 C 14.548 78.876,14.662 79.065,14.729 79.245 C 14.833 79.524,14.877 79.536,15.020 79.329 C 15.151 79.138,15.167 79.162,15.090 79.435 C 15.031 79.648,15.092 79.869,15.246 79.997 C 15.386 80.113,15.500 80.348,15.500 80.520 C 15.500 80.693,15.579 80.833,15.677 80.833 C 15.774 80.833,15.813 80.898,15.764 80.978 C 15.660 81.145,16.232 81.712,16.368 81.577 C 16.418 81.527,16.505 81.605,16.561 81.751 C 16.620 81.905,16.594 81.974,16.498 81.915 C 16.407 81.859,16.333 81.893,16.333 81.990 C 16.333 82.087,16.396 82.167,16.473 82.167 C 16.550 82.167,16.712 82.467,16.833 82.833 C 16.954 83.200,17.116 83.500,17.193 83.500 C 17.270 83.500,17.333 83.618,17.333 83.763 C 17.333 83.907,17.553 84.245,17.821 84.513 C 18.088 84.781,18.234 85.000,18.144 85.000 C 17.934 85.000,18.517 86.011,18.791 86.119 C 18.905 86.165,18.954 86.274,18.899 86.362 C 18.845 86.450,18.939 86.627,19.108 86.756 C 19.278 86.884,19.358 86.992,19.286 86.995 C 19.214 86.998,19.238 87.155,19.339 87.344 C 19.488 87.622,19.570 87.650,19.765 87.487 C 19.964 87.322,19.988 87.337,19.898 87.571 C 19.838 87.728,19.885 88.057,20.001 88.303 C 20.660 89.691,20.741 89.812,20.914 89.669 C 21.035 89.568,21.087 89.664,21.074 89.963 C 21.053 90.443,21.325 90.854,21.567 90.707 C 21.650 90.656,21.664 90.702,21.598 90.809 C 21.441 91.064,21.646 91.699,21.845 91.576 C 21.930 91.523,22.000 91.635,22.000 91.823 C 22.000 92.012,22.169 92.335,22.375 92.542 C 22.581 92.748,22.731 92.973,22.708 93.042 C 22.685 93.110,22.746 93.167,22.843 93.167 C 22.940 93.167,22.973 93.242,22.917 93.333 C 22.788 93.541,23.346 94.512,23.529 94.399 C 23.602 94.353,23.618 94.432,23.564 94.575 C 23.509 94.717,23.547 94.833,23.649 94.833 C 23.750 94.833,23.833 94.950,23.833 95.093 C 23.833 95.247,23.912 95.305,24.026 95.234 C 24.143 95.162,24.173 95.188,24.102 95.303 C 23.964 95.526,24.434 96.500,24.681 96.500 C 24.776 96.500,24.799 96.413,24.734 96.308 C 24.657 96.184,24.689 96.161,24.822 96.243 C 24.964 96.331,24.975 96.425,24.858 96.542 C 24.661 96.739,25.563 98.443,25.829 98.377 C 25.916 98.355,25.940 98.461,25.882 98.613 C 25.812 98.796,25.841 98.848,25.970 98.769 C 26.097 98.690,26.128 98.740,26.060 98.918 C 25.989 99.102,26.069 99.216,26.312 99.279 C 26.507 99.330,26.667 99.443,26.667 99.529 C 26.667 99.616,26.590 99.639,26.497 99.582 C 26.307 99.464,26.824 100.650,27.085 100.930 C 27.177 101.029,27.334 101.083,27.432 101.050 C 27.531 101.018,27.611 101.102,27.611 101.238 C 27.611 101.374,27.541 101.442,27.456 101.390 C 27.371 101.337,27.545 101.734,27.842 102.272 C 28.140 102.810,28.447 103.275,28.526 103.306 C 28.604 103.337,28.632 103.421,28.587 103.494 C 28.542 103.566,28.685 103.879,28.904 104.188 C 29.123 104.497,29.509 105.162,29.763 105.667 C 30.016 106.171,30.267 106.621,30.320 106.667 C 30.373 106.712,30.595 107.105,30.813 107.538 C 31.031 107.972,31.274 108.287,31.353 108.238 C 31.432 108.189,31.455 108.257,31.404 108.388 C 31.298 108.665,32.055 109.555,32.241 109.372 C 32.310 109.305,32.342 109.400,32.312 109.583 C 32.283 109.767,32.330 110.029,32.418 110.167 C 32.506 110.304,32.583 110.454,32.589 110.500 C 32.639 110.889,32.888 111.319,33.016 111.240 C 33.103 111.186,33.158 111.204,33.138 111.279 C 32.958 111.943,34.429 112.895,35.041 112.513 C 35.233 112.393,35.322 112.383,35.258 112.488 C 35.197 112.586,35.184 112.667,35.229 112.667 C 35.461 112.667,36.184 112.315,36.488 112.055 C 36.863 111.734,36.963 111.404,36.625 111.604 C 36.510 111.671,36.660 111.496,36.958 111.213 C 37.256 110.931,37.500 110.540,37.500 110.345 C 37.500 110.149,37.606 109.949,37.735 109.899 C 37.864 109.850,38.019 109.614,38.079 109.376 C 38.138 109.138,38.333 108.758,38.511 108.531 C 38.758 108.217,38.790 108.066,38.647 107.893 C 38.503 107.720,38.517 107.667,38.707 107.667 C 38.964 107.667,39.577 106.834,40.244 105.578 C 40.549 105.004,40.573 104.880,40.360 104.961 C 40.125 105.052,40.123 105.033,40.339 104.799 C 40.473 104.654,40.634 104.566,40.696 104.603 C 40.758 104.641,40.857 104.520,40.916 104.336 C 40.975 104.151,41.105 104.000,41.206 104.000 C 41.306 104.000,41.340 103.951,41.279 103.890 C 41.219 103.830,41.255 103.678,41.359 103.553 C 41.462 103.428,41.507 103.285,41.458 103.236 C 41.409 103.187,41.555 102.960,41.783 102.732 C 42.021 102.495,42.156 102.212,42.100 102.067 C 42.038 101.905,42.072 101.858,42.197 101.935 C 42.326 102.015,42.355 101.963,42.284 101.777 C 42.225 101.625,42.237 101.500,42.310 101.500 C 42.384 101.500,42.550 101.294,42.680 101.042 C 42.810 100.790,43.015 100.506,43.134 100.412 C 43.254 100.318,43.370 100.119,43.392 99.971 C 43.413 99.822,43.528 99.584,43.647 99.441 C 43.765 99.298,43.806 99.091,43.739 98.982 C 43.662 98.858,43.686 98.825,43.800 98.896 C 43.908 98.963,44.095 98.799,44.247 98.505 C 44.446 98.120,44.458 97.999,44.296 97.995 C 44.179 97.992,44.233 97.904,44.417 97.799 C 44.827 97.563,45.154 97.155,45.161 96.868 C 45.164 96.750,45.317 96.492,45.500 96.295 C 45.683 96.098,45.833 95.847,45.833 95.738 C 45.833 95.465,46.264 94.653,46.359 94.748 C 46.401 94.790,46.574 94.489,46.743 94.079 C 46.912 93.669,47.118 93.333,47.202 93.333 C 47.285 93.333,47.306 93.258,47.249 93.165 C 47.192 93.073,47.263 92.879,47.408 92.735 C 47.552 92.591,47.627 92.404,47.575 92.320 C 47.523 92.236,47.597 92.167,47.740 92.167 C 47.977 92.167,48.065 91.938,48.045 91.377 C 48.041 91.263,48.116 91.219,48.212 91.278 C 48.321 91.346,48.351 91.253,48.292 91.026 C 48.240 90.828,48.257 90.703,48.330 90.748 C 48.685 90.967,49.981 88.706,49.641 88.462 C 49.470 88.340,49.484 88.323,49.700 88.392 C 49.884 88.451,50.019 88.370,50.086 88.159 C 50.142 87.981,50.304 87.720,50.446 87.578 C 50.587 87.437,50.713 87.136,50.726 86.909 C 50.739 86.682,50.830 86.527,50.928 86.565 C 51.025 86.602,51.306 86.209,51.551 85.691 C 51.796 85.174,51.885 84.896,51.749 85.074 C 51.612 85.251,51.500 85.308,51.500 85.200 C 51.500 85.092,51.650 84.909,51.833 84.795 C 52.017 84.680,52.167 84.501,52.167 84.397 C 52.167 84.293,52.283 84.111,52.424 83.994 C 52.566 83.876,52.642 83.676,52.593 83.548 C 52.544 83.420,52.578 83.362,52.669 83.418 C 52.759 83.474,52.842 83.384,52.853 83.218 C 52.863 83.052,52.889 82.842,52.911 82.750 C 52.932 82.658,52.962 82.508,52.977 82.417 C 52.993 82.325,53.078 82.362,53.167 82.500 C 53.279 82.674,53.335 82.687,53.352 82.542 C 53.375 82.329,53.426 82.098,53.499 81.875 C 53.521 81.806,53.529 81.688,53.516 81.613 C 53.502 81.537,53.561 81.518,53.646 81.571 C 53.829 81.683,54.547 80.377,54.417 80.167 C 54.368 80.088,54.416 79.969,54.523 79.902 C 54.653 79.822,54.673 79.855,54.583 80.000 C 54.491 80.149,54.513 80.178,54.652 80.092 C 54.764 80.023,54.816 79.861,54.767 79.733 C 54.717 79.605,54.776 79.500,54.897 79.500 C 55.017 79.500,55.251 79.200,55.417 78.833 C 55.582 78.467,55.778 78.167,55.851 78.167 C 55.925 78.167,56.034 77.904,56.094 77.583 C 56.155 77.262,56.274 77.000,56.361 77.000 C 56.447 77.000,56.596 76.775,56.692 76.500 C 56.788 76.225,56.929 76.000,57.006 76.000 C 57.082 76.000,57.240 75.738,57.356 75.417 C 57.472 75.096,57.619 74.833,57.682 74.833 C 57.746 74.833,57.845 74.710,57.903 74.560 C 57.990 74.331,57.966 74.321,57.754 74.497 C 57.598 74.626,57.500 74.640,57.500 74.532 C 57.500 74.435,57.657 74.306,57.849 74.245 C 58.086 74.170,58.171 74.036,58.116 73.823 C 58.071 73.652,58.114 73.528,58.211 73.547 C 58.476 73.601,58.590 72.953,58.527 71.747 L 58.472 70.667 51.236 70.667 L 44.000 70.667 44.000 66.335 L 44.000 62.004 50.292 61.960 L 56.583 61.917 56.628 58.292 L 56.673 54.667 50.337 54.667 L 44.000 54.667 44.000 50.417 L 44.000 46.167 50.750 46.167 L 57.500 46.167 57.500 45.250 C 57.500 44.746,57.575 44.333,57.667 44.333 C 57.758 44.333,57.833 44.254,57.833 44.157 C 57.833 44.060,57.740 44.037,57.625 44.105 C 57.483 44.191,57.490 44.140,57.645 43.949 C 57.794 43.765,57.809 43.667,57.687 43.667 C 57.584 43.667,57.500 43.521,57.500 43.343 C 57.500 43.165,57.413 42.966,57.308 42.901 C 57.180 42.822,57.161 42.856,57.250 43.000 C 57.337 43.141,57.320 43.178,57.200 43.104 C 57.098 43.041,57.057 42.879,57.108 42.745 C 57.160 42.610,57.134 42.500,57.051 42.500 C 56.968 42.500,56.805 42.238,56.689 41.917 C 56.573 41.596,56.416 41.333,56.341 41.333 C 56.265 41.333,56.156 41.146,56.098 40.917 C 56.041 40.687,55.922 40.500,55.835 40.500 C 55.748 40.500,55.720 40.388,55.773 40.250 C 55.826 40.113,55.791 40.000,55.696 40.000 C 55.600 40.000,55.475 39.850,55.417 39.667 C 55.358 39.483,55.185 39.332,55.030 39.331 C 54.788 39.329,54.784 39.306,55.000 39.167 C 55.225 39.021,55.121 38.928,54.792 38.980 C 54.723 38.991,54.676 38.944,54.686 38.875 C 54.748 38.483,54.628 38.128,54.333 37.833 C 54.150 37.650,54.000 37.462,54.000 37.417 C 54.000 37.371,54.000 37.261,54.000 37.173 C 54.000 37.085,53.794 36.813,53.542 36.569 C 53.290 36.325,53.176 36.175,53.290 36.238 C 53.428 36.313,53.463 36.265,53.397 36.092 C 53.342 35.950,53.226 35.833,53.139 35.833 C 53.052 35.833,53.022 35.766,53.073 35.684 C 53.123 35.602,53.052 35.492,52.914 35.439 C 52.776 35.386,52.679 35.284,52.698 35.213 C 52.769 34.948,52.470 34.332,52.317 34.427 C 52.230 34.481,52.175 34.463,52.196 34.387 C 52.267 34.123,51.975 33.496,51.823 33.590 C 51.739 33.641,51.713 33.572,51.766 33.435 C 51.821 33.292,51.724 33.101,51.536 32.984 C 51.349 32.867,51.243 32.659,51.287 32.493 C 51.329 32.331,51.221 32.107,51.037 31.978 C 50.702 31.744,50.667 31.674,50.667 31.258 C 50.667 31.124,50.479 30.828,50.250 30.598 C 50.021 30.369,49.833 30.036,49.833 29.859 C 49.833 29.681,49.720 29.492,49.582 29.439 C 49.443 29.386,49.350 29.271,49.373 29.183 C 49.397 29.095,49.267 28.900,49.083 28.749 C 48.900 28.599,48.844 28.523,48.958 28.581 C 49.073 28.639,49.167 28.607,49.167 28.510 C 49.167 28.413,49.059 28.333,48.928 28.333 C 48.791 28.333,48.666 28.137,48.636 27.875 C 48.607 27.623,48.493 27.434,48.382 27.456 C 48.271 27.478,48.132 27.237,48.073 26.920 C 47.971 26.377,47.745 26.012,47.047 25.266 C 46.884 25.092,46.844 25.002,46.958 25.068 C 47.315 25.271,47.186 24.926,46.819 24.697 C 46.622 24.574,46.512 24.376,46.564 24.240 C 46.615 24.108,46.579 24.000,46.485 24.000 C 46.391 24.000,46.355 23.933,46.405 23.852 C 46.455 23.771,46.385 23.612,46.248 23.498 C 46.112 23.385,46.000 23.185,46.000 23.053 C 46.000 22.921,45.926 22.859,45.835 22.915 C 45.741 22.974,45.713 22.907,45.770 22.759 C 45.824 22.616,45.801 22.500,45.718 22.500 C 45.635 22.500,45.475 22.245,45.362 21.933 C 45.249 21.620,45.042 21.321,44.901 21.267 C 44.761 21.213,44.687 21.101,44.738 21.019 C 44.790 20.936,44.715 20.823,44.572 20.769 C 44.429 20.714,44.364 20.585,44.427 20.483 C 44.491 20.380,44.472 20.248,44.385 20.190 C 44.298 20.131,44.054 19.722,43.843 19.280 C 43.632 18.838,43.262 18.243,43.021 17.957 C 42.780 17.670,42.602 17.413,42.625 17.385 C 42.755 17.224,42.636 16.999,42.474 17.099 C 42.360 17.170,42.327 17.145,42.392 17.039 C 42.453 16.941,42.385 16.742,42.240 16.597 C 42.095 16.452,42.021 16.333,42.076 16.333 C 42.130 16.333,42.059 16.108,41.917 15.833 C 41.774 15.558,41.585 15.333,41.496 15.333 C 41.406 15.333,41.342 15.277,41.353 15.208 C 41.408 14.859,41.313 14.660,41.141 14.766 C 41.032 14.833,40.993 14.812,41.052 14.717 C 41.166 14.532,40.774 13.686,40.201 12.882 C 39.999 12.598,39.833 12.313,39.833 12.250 C 39.833 12.187,39.686 11.927,39.505 11.674 C 39.324 11.420,39.227 11.162,39.289 11.100 C 39.351 11.038,39.230 10.942,39.020 10.887 C 38.803 10.830,38.716 10.739,38.817 10.677 C 38.931 10.606,38.795 10.253,38.440 9.702 C 38.134 9.227,37.844 8.878,37.796 8.926 C 37.749 8.974,37.624 8.672,37.519 8.256 C 37.414 7.840,37.269 7.500,37.195 7.500 C 37.122 7.500,36.959 7.237,36.833 6.917 C 36.707 6.596,36.549 6.333,36.480 6.333 C 36.412 6.333,36.313 6.200,36.262 6.037 C 36.067 5.423,34.681 5.084,33.899 5.458 M85.167 57.336 L 85.167 78.005 89.625 77.961 L 94.083 77.917 94.127 70.011 C 94.161 63.797,94.125 62.077,93.960 61.972 C 93.822 61.884,93.815 61.838,93.939 61.836 C 94.186 61.833,94.348 61.001,94.102 60.997 C 93.968 60.996,93.969 60.961,94.104 60.872 C 94.207 60.805,94.348 60.489,94.418 60.169 C 94.487 59.850,94.655 59.418,94.791 59.211 C 94.927 59.003,94.989 58.833,94.929 58.833 C 94.869 58.833,94.971 58.672,95.154 58.475 C 95.338 58.278,95.442 58.034,95.384 57.933 C 95.327 57.832,95.337 57.801,95.407 57.864 C 95.476 57.926,95.753 57.753,96.021 57.479 C 96.289 57.204,96.750 56.897,97.046 56.796 C 97.342 56.695,97.633 56.538,97.693 56.447 C 97.870 56.178,100.728 56.266,100.561 56.535 C 100.493 56.647,100.723 56.698,101.096 56.656 C 101.149 56.650,101.383 56.856,101.616 57.114 C 101.849 57.372,101.988 57.490,101.926 57.375 C 101.864 57.260,101.857 57.167,101.911 57.167 C 101.964 57.167,102.080 57.354,102.167 57.583 C 102.254 57.813,102.458 58.001,102.621 58.003 C 102.873 58.005,102.880 58.029,102.667 58.169 C 102.487 58.287,102.471 58.368,102.609 58.458 C 102.714 58.527,102.854 58.940,102.919 59.375 C 102.984 59.810,103.086 60.167,103.144 60.167 C 103.202 60.167,103.228 64.179,103.202 69.083 L 103.153 78.000 107.746 78.000 L 112.338 78.000 112.330 69.083 C 112.325 63.453,112.263 60.167,112.161 60.167 C 112.073 60.167,112.000 60.087,112.000 59.990 C 112.000 59.893,112.085 59.866,112.189 59.931 C 112.327 60.016,112.343 59.826,112.248 59.232 C 112.176 58.784,112.130 58.229,112.145 58.000 C 112.161 57.771,112.102 57.433,112.015 57.250 C 111.928 57.067,111.809 56.559,111.751 56.122 C 111.693 55.685,111.586 55.364,111.513 55.408 C 111.441 55.453,111.417 55.305,111.460 55.078 C 111.506 54.839,111.461 54.667,111.353 54.667 C 111.250 54.667,111.167 54.517,111.167 54.333 C 111.167 54.150,111.084 54.000,110.982 54.000 C 110.881 54.000,110.839 53.893,110.889 53.762 C 110.939 53.631,110.880 53.441,110.758 53.340 C 110.636 53.239,110.445 52.936,110.333 52.667 C 110.222 52.398,109.989 52.133,109.815 52.078 C 109.642 52.023,109.500 51.870,109.500 51.739 C 109.500 51.607,109.439 51.500,109.365 51.500 C 109.291 51.500,109.085 51.382,108.907 51.238 C 108.729 51.093,108.677 51.023,108.792 51.081 C 108.906 51.139,109.000 51.146,109.000 51.097 C 109.000 51.049,108.767 50.888,108.482 50.741 C 108.102 50.544,107.998 50.532,108.092 50.695 C 108.163 50.817,108.040 50.757,107.819 50.561 C 107.286 50.090,106.361 49.630,106.176 49.744 C 106.095 49.794,105.997 49.741,105.959 49.626 C 105.820 49.210,99.129 49.392,98.833 49.821 C 98.729 49.972,98.126 50.229,97.958 50.193 C 97.890 50.179,97.832 50.298,97.831 50.458 C 97.829 50.708,97.805 50.714,97.667 50.500 C 97.559 50.333,97.504 50.319,97.503 50.458 C 97.501 50.573,97.388 50.667,97.250 50.667 C 97.112 50.667,97.000 50.734,97.000 50.817 C 97.000 50.899,96.733 51.125,96.407 51.317 C 96.081 51.509,95.861 51.744,95.919 51.838 C 95.977 51.931,95.963 51.994,95.887 51.978 C 95.619 51.918,95.167 52.206,95.167 52.436 C 95.167 52.565,95.010 52.800,94.818 52.960 C 94.626 53.119,94.405 53.400,94.328 53.583 C 94.249 53.770,94.183 50.126,94.177 45.292 L 94.167 36.667 89.667 36.667 L 85.167 36.667 85.167 57.336 M72.889 41.782 C 72.538 41.910,72.063 42.051,71.833 42.095 C 71.604 42.140,71.304 42.223,71.167 42.280 C 70.795 42.434,70.662 42.473,69.733 42.705 C 69.265 42.821,68.744 43.029,68.576 43.167 C 68.331 43.367,68.298 43.369,68.412 43.180 C 68.524 42.995,68.485 42.972,68.236 43.075 C 68.060 43.148,67.429 43.334,66.833 43.489 L 65.750 43.771 65.705 46.885 L 65.659 50.000 63.413 50.000 L 61.167 50.000 61.167 53.167 L 61.167 56.333 63.417 56.333 L 65.667 56.333 65.686 63.708 C 65.696 67.765,65.723 71.158,65.744 71.250 C 65.765 71.342,65.802 71.492,65.826 71.583 C 65.849 71.675,65.855 71.956,65.838 72.208 C 65.822 72.460,65.882 72.667,65.972 72.667 C 66.062 72.667,66.096 72.817,66.048 73.000 C 66.000 73.186,66.043 73.333,66.147 73.333 C 66.250 73.333,66.333 73.525,66.333 73.760 C 66.333 74.043,66.399 74.146,66.528 74.066 C 66.663 73.983,66.687 74.039,66.607 74.249 C 66.407 74.770,68.456 77.317,68.869 77.061 C 68.974 76.996,69.004 77.025,68.940 77.129 C 68.878 77.230,68.991 77.361,69.198 77.427 C 69.401 77.491,69.667 77.644,69.789 77.765 C 69.911 77.887,70.271 78.036,70.589 78.095 C 70.907 78.155,71.167 78.280,71.167 78.373 C 71.167 78.471,71.373 78.500,71.660 78.443 C 71.932 78.389,72.191 78.405,72.237 78.480 C 72.338 78.643,76.960 78.713,77.957 78.567 C 78.345 78.509,78.625 78.401,78.578 78.325 C 78.532 78.250,78.832 78.137,79.245 78.075 C 79.702 78.007,79.955 77.895,79.889 77.789 C 79.825 77.686,79.863 77.665,79.982 77.739 C 80.557 78.095,80.667 77.538,80.667 74.243 C 80.667 70.820,80.622 70.644,79.884 71.122 C 78.934 71.739,76.385 71.695,75.886 71.053 C 75.778 70.914,75.607 70.851,75.507 70.912 C 75.407 70.974,75.338 70.963,75.353 70.887 C 75.402 70.648,74.973 69.664,74.852 69.739 C 74.788 69.778,74.718 69.577,74.696 69.291 C 74.675 69.006,74.598 68.692,74.526 68.594 C 74.455 68.497,74.410 68.323,74.427 68.208 C 74.444 68.094,74.468 65.375,74.479 62.167 L 74.500 56.333 77.583 56.333 L 80.667 56.333 80.667 53.167 L 80.667 50.000 77.583 50.000 L 74.500 50.000 74.500 45.761 L 74.500 41.522 74.014 41.536 C 73.747 41.544,73.241 41.654,72.889 41.782 M258.708 59.800 L 258.750 77.917 262.333 77.964 C 264.304 77.990,266.085 77.970,266.292 77.919 L 266.667 77.827 266.667 69.997 C 266.667 65.690,266.725 62.167,266.797 62.167 C 266.869 62.167,267.027 61.830,267.148 61.418 C 267.369 60.670,268.997 58.712,269.003 59.188 C 269.004 59.341,269.046 59.356,269.128 59.233 C 269.459 58.737,272.305 58.665,272.466 59.149 C 272.500 59.250,272.616 59.333,272.723 59.333 C 273.056 59.333,273.831 60.281,273.939 60.820 C 273.995 61.102,274.102 61.333,274.176 61.333 C 274.249 61.333,274.356 61.765,274.413 62.292 C 274.470 62.819,274.593 63.389,274.687 63.559 C 274.807 63.776,274.805 63.835,274.679 63.758 C 274.553 63.679,274.500 65.754,274.500 70.827 L 274.500 78.006 278.458 77.961 L 282.417 77.917 282.417 68.984 C 282.417 61.291,282.382 60.008,282.167 59.743 C 281.944 59.470,281.944 59.452,282.167 59.583 C 282.366 59.701,282.379 59.682,282.231 59.490 C 282.129 59.358,282.000 58.897,281.944 58.466 C 281.888 58.034,281.690 57.398,281.504 57.051 C 281.319 56.705,281.167 56.368,281.167 56.302 C 281.167 56.070,280.299 54.917,280.155 54.957 C 280.075 54.979,279.920 54.829,279.811 54.623 C 279.576 54.181,279.139 53.831,278.960 53.941 C 278.890 53.984,278.833 53.936,278.833 53.833 C 278.833 53.731,278.766 53.688,278.684 53.739 C 278.602 53.790,278.492 53.719,278.439 53.582 C 278.387 53.445,278.229 53.333,278.089 53.333 C 277.948 53.333,277.833 53.258,277.833 53.167 C 277.833 53.075,277.754 53.000,277.657 53.000 C 277.560 53.000,277.535 53.094,277.602 53.208 C 277.669 53.323,277.568 53.280,277.377 53.112 C 276.768 52.580,270.781 52.511,271.108 53.041 C 271.181 53.158,271.122 53.185,270.943 53.117 C 270.777 53.053,270.327 53.209,269.825 53.505 C 269.363 53.777,268.958 54.000,268.924 54.000 C 268.773 54.000,267.667 55.179,267.667 55.340 C 267.667 55.439,267.595 55.476,267.508 55.422 C 267.421 55.368,267.269 55.476,267.169 55.662 C 266.724 56.493,266.669 55.799,266.627 48.875 L 266.583 41.750 262.624 41.717 L 258.665 41.683 258.708 59.800 M339.667 41.830 C 339.667 41.903,339.423 42.011,339.125 42.070 C 338.578 42.177,337.538 42.986,337.459 43.365 C 337.436 43.478,337.293 43.710,337.143 43.881 C 336.629 44.463,336.555 47.007,337.059 46.724 C 337.174 46.660,337.167 46.707,337.042 46.842 C 336.753 47.153,336.781 47.389,337.092 47.270 C 337.234 47.215,337.309 47.238,337.257 47.321 C 337.116 47.550,337.476 48.368,337.666 48.250 C 337.758 48.193,337.833 48.266,337.833 48.410 C 337.833 48.555,338.021 48.759,338.250 48.864 C 338.479 48.968,338.667 49.112,338.667 49.184 C 338.667 49.256,338.819 49.285,339.004 49.249 C 339.190 49.213,339.300 49.253,339.248 49.337 C 339.086 49.598,339.912 49.701,341.686 49.641 C 342.862 49.601,343.411 49.519,343.459 49.374 C 343.497 49.259,343.601 49.209,343.690 49.264 C 343.778 49.319,343.997 49.196,344.176 48.990 C 344.354 48.784,344.500 48.679,344.500 48.756 C 344.500 48.931,345.013 48.357,345.292 47.869 C 345.406 47.668,345.500 47.391,345.500 47.252 C 345.500 47.114,345.580 47.000,345.678 47.000 C 345.955 47.000,345.824 44.645,345.527 44.292 C 345.392 44.131,345.329 44.000,345.387 44.000 C 345.630 44.000,344.865 42.920,344.338 42.518 C 344.025 42.279,343.833 42.196,343.913 42.333 C 344.016 42.511,343.961 42.499,343.724 42.292 C 343.540 42.131,343.303 42.000,343.195 42.000 C 343.088 42.000,343.000 41.930,343.000 41.845 C 343.000 41.759,342.252 41.691,341.333 41.693 C 340.417 41.695,339.667 41.757,339.667 41.830 M185.343 44.065 C 185.224 44.287,185.178 44.550,185.240 44.651 C 185.302 44.751,185.274 44.833,185.177 44.833 C 185.079 44.833,185.000 45.025,185.000 45.260 C 185.000 45.540,184.934 45.646,184.807 45.567 C 184.677 45.487,184.642 45.556,184.701 45.779 C 184.748 45.961,184.685 46.249,184.560 46.420 C 184.435 46.591,184.333 46.824,184.333 46.938 C 184.333 47.052,184.246 47.356,184.139 47.614 C 184.032 47.872,183.938 48.133,183.931 48.194 C 183.923 48.256,183.860 48.362,183.792 48.431 C 183.723 48.499,183.667 48.693,183.667 48.861 C 183.667 49.029,183.592 49.167,183.501 49.167 C 183.410 49.167,183.361 49.335,183.393 49.542 C 183.425 49.748,183.275 50.195,183.061 50.534 C 182.829 50.903,182.716 51.267,182.781 51.437 C 182.861 51.646,182.831 51.685,182.667 51.583 C 182.507 51.485,182.471 51.519,182.542 51.702 C 182.596 51.844,182.572 52.028,182.488 52.112 C 182.404 52.196,182.319 52.462,182.299 52.704 C 182.279 52.945,182.209 53.109,182.143 53.069 C 182.009 52.986,181.892 53.310,181.747 54.162 C 181.693 54.481,181.559 54.798,181.449 54.868 C 181.301 54.963,181.306 54.996,181.470 54.997 C 181.633 54.999,181.620 55.071,181.420 55.270 C 181.272 55.419,181.107 55.756,181.054 56.020 C 181.002 56.284,180.901 56.500,180.831 56.500 C 180.761 56.500,180.645 56.781,180.573 57.125 C 180.440 57.762,180.406 57.904,180.334 58.125 C 180.312 58.194,180.303 58.306,180.314 58.375 C 180.324 58.444,180.261 58.500,180.173 58.500 C 179.971 58.500,179.616 59.783,179.755 60.008 C 179.812 60.100,179.762 60.154,179.645 60.129 C 179.528 60.104,179.428 60.171,179.424 60.278 C 179.420 60.385,179.360 60.528,179.292 60.597 C 179.086 60.802,179.150 61.030,179.375 60.895 C 179.541 60.795,179.541 60.821,179.376 61.025 C 179.263 61.166,179.225 61.342,179.293 61.417 C 179.361 61.492,179.323 61.499,179.208 61.434 C 179.075 61.357,178.998 61.422,178.995 61.615 C 178.992 61.781,178.879 62.062,178.745 62.240 C 178.610 62.418,178.500 62.718,178.499 62.907 C 178.498 63.096,178.385 63.467,178.246 63.733 C 178.107 63.999,178.030 64.252,178.074 64.297 C 178.119 64.341,178.045 64.534,177.911 64.726 C 177.777 64.917,177.667 65.201,177.667 65.357 C 177.667 65.512,177.596 65.664,177.509 65.694 C 177.422 65.725,177.305 66.012,177.250 66.333 C 177.194 66.654,177.034 67.091,176.895 67.305 C 176.755 67.519,176.682 67.800,176.732 67.930 C 176.782 68.060,176.751 68.167,176.663 68.167 C 176.576 68.167,176.456 68.465,176.398 68.830 C 176.336 69.219,176.221 69.450,176.122 69.389 C 176.012 69.321,175.992 69.446,176.066 69.739 C 176.133 70.007,176.116 70.155,176.025 70.099 C 175.940 70.046,175.821 70.265,175.761 70.585 C 175.701 70.905,175.580 71.167,175.492 71.167 C 175.405 71.167,175.342 71.223,175.353 71.292 C 175.364 71.360,175.355 71.473,175.332 71.542 C 175.232 71.849,175.206 71.948,175.086 72.456 C 175.017 72.752,174.905 72.961,174.838 72.920 C 174.727 72.851,174.237 74.607,174.297 74.859 C 174.311 74.919,174.213 75.059,174.078 75.171 C 173.943 75.283,173.833 75.496,173.832 75.645 C 173.832 75.795,173.717 76.136,173.577 76.405 C 173.437 76.674,173.282 77.144,173.234 77.449 L 173.145 78.006 177.531 77.961 L 181.917 77.917 181.969 77.458 C 181.998 77.206,182.101 77.000,182.197 77.000 C 182.294 77.000,182.337 76.814,182.293 76.583 C 182.249 76.354,182.268 76.167,182.335 76.167 C 182.402 76.167,182.504 75.873,182.562 75.514 C 182.619 75.155,182.740 74.836,182.830 74.806 C 182.920 74.775,183.014 74.469,183.039 74.125 C 183.063 73.782,183.140 73.501,183.208 73.500 C 183.277 73.500,183.333 73.350,183.333 73.167 C 183.333 72.983,183.416 72.833,183.518 72.833 C 183.619 72.833,183.660 72.723,183.608 72.589 C 183.557 72.454,183.576 72.306,183.652 72.259 C 183.728 72.212,183.839 71.865,183.899 71.487 C 184.091 70.287,183.842 70.333,190.083 70.333 C 194.348 70.333,195.740 70.383,195.896 70.542 C 196.170 70.819,196.351 71.292,196.453 72.000 C 196.499 72.321,196.598 72.622,196.672 72.668 C 196.746 72.715,196.856 72.978,196.916 73.252 C 196.977 73.526,197.086 73.900,197.159 74.083 C 197.232 74.267,197.376 74.626,197.479 74.883 C 197.582 75.139,197.667 75.529,197.667 75.748 C 197.667 75.967,197.743 76.194,197.836 76.252 C 197.929 76.309,197.957 76.435,197.898 76.530 C 197.839 76.626,197.857 76.752,197.939 76.810 C 198.021 76.869,198.163 77.142,198.256 77.417 L 198.425 77.917 202.814 77.961 L 207.204 78.006 207.094 77.567 C 207.033 77.325,206.941 76.912,206.888 76.647 C 206.835 76.383,206.734 76.167,206.662 76.167 C 206.591 76.167,206.443 75.792,206.333 75.333 C 206.223 74.875,206.075 74.500,206.004 74.500 C 205.933 74.500,205.775 74.050,205.653 73.500 C 205.531 72.950,205.384 72.500,205.326 72.500 C 205.267 72.500,205.121 72.087,205.000 71.583 C 204.879 71.079,204.717 70.667,204.640 70.667 C 204.563 70.667,204.500 70.514,204.500 70.328 C 204.500 70.142,204.386 69.946,204.246 69.892 C 204.050 69.817,204.035 69.742,204.183 69.564 C 204.316 69.403,204.319 69.333,204.192 69.333 C 204.092 69.333,204.049 69.233,204.096 69.110 C 204.143 68.987,204.066 68.791,203.924 68.673 C 203.783 68.555,203.666 68.262,203.666 68.021 C 203.665 67.780,203.553 67.369,203.416 67.106 C 203.279 66.843,203.167 66.567,203.167 66.492 C 203.167 66.417,203.086 66.144,202.988 65.886 C 202.890 65.628,202.822 65.388,202.836 65.352 C 202.850 65.316,202.779 65.236,202.677 65.173 C 202.575 65.110,202.457 64.877,202.413 64.654 C 202.370 64.432,202.288 64.006,202.232 63.708 C 202.176 63.410,202.075 63.167,202.008 63.167 C 201.941 63.167,201.788 62.754,201.667 62.250 C 201.546 61.746,201.393 61.333,201.328 61.333 C 201.262 61.333,201.152 61.090,201.083 60.792 C 201.014 60.494,200.932 60.175,200.902 60.083 C 200.460 58.760,200.250 58.240,200.135 58.194 C 200.060 58.163,200.038 58.073,200.088 57.993 C 200.137 57.912,200.106 57.713,200.018 57.548 C 199.789 57.121,199.609 56.604,199.640 56.458 C 199.655 56.390,199.587 56.333,199.490 56.333 C 199.393 56.333,199.354 56.267,199.404 56.187 C 199.483 56.059,199.269 55.471,198.848 54.667 C 198.776 54.529,198.737 54.285,198.761 54.125 C 198.784 53.965,198.747 53.833,198.679 53.833 C 198.610 53.833,198.455 53.423,198.335 52.922 C 198.215 52.421,198.067 52.042,198.007 52.079 C 197.897 52.147,197.456 50.801,197.436 50.333 C 197.430 50.196,197.329 49.984,197.212 49.863 C 197.096 49.742,197.000 49.478,197.000 49.277 C 197.000 49.076,196.850 48.632,196.666 48.289 C 196.483 47.947,196.339 47.628,196.346 47.581 C 196.378 47.363,196.112 46.434,195.902 46.030 C 195.774 45.785,195.668 45.490,195.668 45.375 C 195.667 45.260,195.596 45.167,195.510 45.167 C 195.423 45.167,195.382 45.015,195.418 44.829 C 195.453 44.643,195.411 44.535,195.325 44.589 C 195.238 44.642,195.157 44.569,195.146 44.427 C 195.134 44.284,195.116 44.073,195.104 43.958 C 195.088 43.798,193.983 43.740,190.321 43.706 L 185.559 43.662 185.343 44.065 M248.000 46.110 C 247.862 46.156,247.637 46.237,247.500 46.290 C 247.362 46.343,247.186 46.372,247.107 46.354 C 247.029 46.336,246.879 46.391,246.774 46.475 C 246.669 46.560,246.265 46.681,245.876 46.746 C 245.487 46.810,245.128 46.928,245.079 47.007 C 245.030 47.087,244.867 47.105,244.717 47.048 C 244.549 46.983,244.487 47.010,244.554 47.120 C 244.614 47.216,244.570 47.287,244.457 47.277 C 244.017 47.237,242.833 47.537,242.833 47.689 C 242.833 47.776,242.740 47.832,242.625 47.813 C 242.510 47.795,242.210 47.837,241.958 47.908 L 241.500 48.036 241.500 50.679 L 241.500 53.323 239.542 53.370 L 237.583 53.417 237.583 56.167 L 237.583 58.917 239.542 58.964 L 241.500 59.011 241.523 65.547 C 241.535 69.142,241.545 72.215,241.545 72.375 C 241.544 72.535,241.609 72.667,241.688 72.667 C 241.768 72.667,241.834 72.873,241.834 73.125 C 241.836 73.789,242.160 74.857,242.329 74.753 C 242.408 74.704,242.526 74.908,242.591 75.207 C 242.722 75.807,243.229 76.549,243.395 76.383 C 243.453 76.325,243.500 76.364,243.500 76.470 C 243.500 76.742,244.034 77.333,244.279 77.333 C 244.391 77.333,244.555 77.461,244.642 77.617 C 244.777 77.858,244.842 77.867,245.071 77.677 C 245.301 77.486,245.326 77.491,245.242 77.711 C 245.169 77.900,245.290 78.000,245.697 78.088 C 246.001 78.155,246.303 78.292,246.367 78.393 C 246.509 78.616,252.667 78.729,252.667 78.509 C 252.667 78.429,252.817 78.404,253.001 78.452 C 253.185 78.500,253.428 78.464,253.543 78.372 C 253.657 78.280,253.994 78.153,254.292 78.089 L 254.833 77.974 254.833 74.987 L 254.833 72.000 254.407 72.000 C 254.127 72.000,254.021 72.066,254.099 72.192 C 254.174 72.314,254.145 72.339,254.018 72.261 C 253.909 72.194,253.710 72.228,253.577 72.339 C 253.259 72.603,251.333 72.603,251.170 72.339 C 251.102 72.228,251.017 72.162,250.981 72.191 C 250.829 72.315,250.175 71.695,249.811 71.081 C 249.420 70.422,249.416 70.367,249.363 64.708 L 249.310 59.000 252.072 59.000 L 254.833 59.000 254.833 56.167 L 254.833 53.333 252.083 53.333 L 249.333 53.333 249.333 49.667 L 249.333 46.000 248.792 46.013 C 248.494 46.020,248.137 46.064,248.000 46.110 M359.167 46.226 C 358.846 46.331,358.478 46.485,358.349 46.567 C 358.188 46.672,358.152 46.659,358.234 46.526 C 358.299 46.420,358.274 46.333,358.177 46.333 C 358.079 46.333,358.000 46.390,358.000 46.460 C 358.000 46.530,357.842 46.685,357.649 46.806 C 357.392 46.966,357.332 46.970,357.425 46.820 C 357.514 46.675,357.483 46.658,357.317 46.762 C 357.189 46.843,356.828 46.926,356.516 46.947 C 356.204 46.967,355.870 47.063,355.774 47.159 C 355.679 47.255,355.484 47.334,355.342 47.334 C 355.200 47.335,354.881 47.441,354.634 47.570 C 354.387 47.699,354.162 47.743,354.134 47.669 C 354.106 47.594,353.802 47.656,353.458 47.806 L 352.833 48.078 352.833 50.701 L 352.833 53.323 350.875 53.370 L 348.917 53.417 348.871 56.208 L 348.825 59.000 350.829 59.000 L 352.833 59.000 352.859 64.625 C 352.873 67.719,352.870 70.606,352.853 71.042 C 352.831 71.592,352.886 71.834,353.035 71.836 C 353.191 71.838,353.183 71.881,353.008 71.992 C 352.796 72.125,352.796 72.202,353.006 72.594 C 353.138 72.841,353.224 73.214,353.197 73.423 C 353.169 73.631,353.223 73.849,353.316 73.906 C 353.409 73.964,353.448 74.109,353.402 74.229 C 353.356 74.349,353.434 74.543,353.576 74.660 C 353.717 74.778,353.833 74.972,353.833 75.092 C 353.833 75.212,353.927 75.411,354.042 75.536 C 354.156 75.660,354.369 75.984,354.515 76.256 C 354.661 76.528,354.868 76.731,354.974 76.708 C 355.080 76.685,355.167 76.775,355.167 76.908 C 355.167 77.040,355.373 77.262,355.625 77.402 C 356.447 77.855,357.077 78.133,357.417 78.192 C 357.600 78.224,357.803 78.325,357.869 78.417 C 358.079 78.711,364.800 78.589,365.103 78.286 C 365.169 78.220,365.354 78.167,365.516 78.167 C 366.193 78.167,366.254 77.864,366.167 74.963 C 366.121 73.442,366.140 72.233,366.208 72.275 C 366.277 72.318,366.333 72.274,366.333 72.177 C 366.333 72.079,366.108 72.000,365.833 72.000 C 365.558 72.000,365.333 72.079,365.333 72.177 C 365.333 72.274,365.258 72.307,365.167 72.250 C 365.075 72.193,365.000 72.231,365.000 72.333 C 365.000 72.436,364.930 72.477,364.845 72.424 C 364.760 72.371,364.651 72.390,364.604 72.466 C 364.152 73.197,361.190 71.908,361.172 70.972 C 361.169 70.819,361.073 70.663,360.958 70.625 C 360.798 70.572,360.738 69.214,360.697 64.778 L 360.643 59.000 363.447 59.000 L 366.250 59.000 366.250 56.167 L 366.250 53.333 363.458 53.333 L 360.667 53.333 360.667 49.667 L 360.667 46.000 360.208 46.017 C 359.956 46.027,359.488 46.121,359.167 46.226 M128.545 49.440 C 128.593 49.519,128.267 49.591,127.822 49.600 C 127.376 49.609,126.915 49.694,126.797 49.789 C 126.680 49.884,126.339 50.014,126.040 50.078 C 125.710 50.148,125.541 50.265,125.609 50.375 C 125.680 50.489,125.623 50.519,125.456 50.455 C 125.310 50.399,125.102 50.460,124.993 50.591 C 124.885 50.722,124.729 50.789,124.648 50.738 C 124.567 50.688,124.500 50.731,124.500 50.833 C 124.500 50.936,124.428 50.975,124.339 50.920 C 124.251 50.866,124.026 50.974,123.839 51.161 C 123.653 51.347,123.462 51.500,123.417 51.500 C 123.371 51.500,123.267 51.500,123.186 51.500 C 123.105 51.500,122.996 51.665,122.943 51.868 C 122.890 52.070,122.795 52.184,122.731 52.120 C 122.668 52.057,122.510 52.135,122.379 52.294 C 122.230 52.476,122.186 52.491,122.261 52.333 C 122.404 52.035,120.376 54.105,119.961 54.682 C 119.176 55.771,118.809 56.415,118.722 56.850 C 118.669 57.113,118.575 57.296,118.513 57.258 C 118.451 57.220,118.299 57.540,118.176 57.969 C 118.052 58.399,117.908 58.825,117.855 58.917 C 117.803 59.008,117.744 59.158,117.725 59.250 C 117.412 60.784,117.333 61.353,117.333 62.096 C 117.333 62.582,117.258 63.027,117.167 63.083 C 117.075 63.140,117.000 63.449,117.000 63.770 C 117.000 64.192,117.058 64.318,117.208 64.228 C 117.352 64.141,117.346 64.189,117.190 64.382 C 117.038 64.570,116.998 64.868,117.070 65.289 C 117.129 65.634,117.242 66.487,117.320 67.184 C 117.486 68.655,117.664 69.549,117.815 69.667 C 117.874 69.712,118.016 70.113,118.131 70.557 C 118.246 71.001,118.451 71.475,118.587 71.611 C 118.722 71.746,118.843 71.927,118.854 72.012 C 118.895 72.312,118.942 72.422,119.261 72.957 C 119.438 73.255,119.644 73.498,119.718 73.499 C 119.792 73.500,119.807 73.575,119.750 73.667 C 119.693 73.758,119.768 73.833,119.917 73.833 C 120.065 73.833,120.144 73.902,120.092 73.987 C 119.980 74.167,121.036 75.333,121.311 75.333 C 121.415 75.333,121.500 75.434,121.500 75.557 C 121.500 75.679,121.688 75.865,121.917 75.970 C 122.146 76.074,122.333 76.222,122.333 76.299 C 122.333 76.375,122.596 76.541,122.917 76.667 C 123.237 76.793,123.500 76.957,123.500 77.031 C 123.500 77.106,123.556 77.152,123.625 77.133 C 123.694 77.115,124.083 77.265,124.490 77.467 C 125.351 77.894,125.387 77.901,125.247 77.625 C 125.189 77.510,125.256 77.557,125.396 77.729 C 125.542 77.908,125.761 77.999,125.909 77.943 C 126.051 77.888,126.167 77.924,126.167 78.023 C 126.167 78.122,126.260 78.167,126.375 78.123 C 126.490 78.079,126.771 78.120,127.000 78.213 C 127.229 78.307,127.529 78.418,127.667 78.461 C 128.288 78.655,134.241 78.646,134.482 78.451 C 134.678 78.293,134.704 78.294,134.605 78.458 C 134.518 78.604,134.612 78.667,134.917 78.667 C 135.157 78.667,135.316 78.607,135.272 78.535 C 135.227 78.462,135.454 78.434,135.777 78.472 C 136.100 78.509,136.526 78.462,136.724 78.367 C 136.921 78.272,137.571 78.106,138.167 77.998 C 138.762 77.890,139.337 77.730,139.444 77.643 C 139.551 77.555,139.850 77.445,140.109 77.398 C 140.367 77.351,140.815 77.133,141.102 76.913 C 141.390 76.694,141.654 76.542,141.688 76.577 C 141.722 76.611,141.735 75.202,141.718 73.445 C 141.690 70.705,141.648 70.242,141.426 70.196 C 141.283 70.166,141.167 70.211,141.167 70.295 C 141.167 70.379,140.865 70.538,140.495 70.648 C 140.126 70.759,139.862 70.911,139.908 70.986 C 139.955 71.061,139.544 71.218,138.996 71.334 C 138.448 71.450,138.000 71.605,138.000 71.677 C 138.000 71.750,137.569 71.863,137.042 71.929 C 136.491 71.998,135.991 72.162,135.863 72.316 C 135.742 72.463,135.689 72.490,135.747 72.375 C 135.825 72.222,135.628 72.167,135.000 72.167 C 134.531 72.167,134.184 72.226,134.229 72.299 C 134.274 72.371,134.148 72.443,133.949 72.458 C 133.686 72.478,133.650 72.446,133.817 72.343 C 133.956 72.258,133.491 72.199,132.649 72.195 C 131.220 72.189,129.662 71.914,129.485 71.637 C 129.431 71.553,129.225 71.471,129.027 71.456 C 128.829 71.441,128.667 71.375,128.667 71.309 C 128.667 71.243,128.516 71.141,128.331 71.083 C 128.146 71.024,128.038 70.906,128.091 70.821 C 128.143 70.736,128.118 70.667,128.035 70.667 C 127.771 70.667,127.168 70.055,127.295 69.915 C 127.362 69.841,127.282 69.829,127.116 69.888 C 126.951 69.948,126.857 69.930,126.907 69.849 C 127.000 69.698,126.632 68.685,126.400 68.455 C 126.329 68.384,126.258 68.197,126.242 68.038 C 126.226 67.880,126.193 67.675,126.170 67.583 C 126.146 67.492,126.136 67.248,126.147 67.042 L 126.167 66.667 135.173 66.667 L 144.179 66.667 144.150 63.875 C 144.117 60.627,144.013 59.139,143.827 59.254 C 143.755 59.299,143.731 59.110,143.774 58.834 C 143.818 58.559,143.782 58.333,143.695 58.333 C 143.608 58.333,143.499 58.090,143.454 57.792 C 143.329 56.982,143.225 56.653,142.845 55.883 C 142.655 55.498,142.500 55.104,142.500 55.008 C 142.500 54.912,142.430 54.833,142.345 54.833 C 142.259 54.833,142.141 54.682,142.083 54.498 C 142.024 54.313,141.895 54.212,141.796 54.273 C 141.690 54.339,141.663 54.307,141.731 54.198 C 141.914 53.901,139.503 51.338,139.036 51.335 C 138.919 51.334,138.781 51.225,138.731 51.094 C 138.680 50.962,138.420 50.806,138.153 50.747 C 137.885 50.688,137.666 50.552,137.664 50.445 C 137.662 50.319,137.611 50.330,137.518 50.476 C 137.415 50.639,137.342 50.649,137.258 50.512 C 137.074 50.216,135.695 49.620,135.428 49.723 C 135.296 49.773,135.159 49.728,135.124 49.621 C 135.079 49.486,134.063 49.408,131.758 49.362 C 129.938 49.326,128.497 49.361,128.545 49.440 M162.676 49.612 C 162.457 49.765,162.332 49.804,162.398 49.697 C 162.476 49.571,162.428 49.538,162.260 49.603 C 162.118 49.657,162.032 49.750,162.068 49.809 C 162.105 49.868,161.945 49.928,161.712 49.942 C 161.480 49.956,161.243 50.044,161.185 50.137 C 161.127 50.230,160.977 50.331,160.851 50.362 C 160.534 50.438,159.881 51.056,159.957 51.208 C 159.992 51.277,159.912 51.333,159.780 51.333 C 159.487 51.333,158.811 52.197,158.254 53.281 L 157.842 54.083 157.838 52.042 L 157.833 50.000 153.333 50.000 L 148.833 50.000 148.833 64.003 L 148.833 78.005 153.292 77.961 L 157.750 77.917 157.786 70.997 C 157.807 67.191,157.863 63.704,157.912 63.247 C 158.048 61.974,158.184 61.267,158.327 61.083 C 158.398 60.992,158.553 60.617,158.671 60.250 C 158.789 59.883,159.005 59.492,159.151 59.380 C 159.297 59.269,159.363 59.175,159.297 59.172 C 159.145 59.165,160.207 58.000,160.365 58.000 C 160.430 58.000,160.677 57.820,160.914 57.600 C 161.200 57.335,161.464 57.232,161.699 57.293 C 161.940 57.357,162.014 57.325,161.933 57.193 C 161.852 57.062,161.992 56.996,162.365 56.988 C 164.541 56.939,165.187 56.976,165.412 57.163 C 165.550 57.277,165.771 57.329,165.904 57.278 C 166.037 57.227,166.169 57.254,166.198 57.339 C 166.226 57.423,166.494 57.541,166.792 57.600 L 167.333 57.708 167.333 53.622 C 167.333 50.050,167.300 49.523,167.070 49.434 C 166.440 49.193,163.081 49.329,162.676 49.612 M190.383 52.438 C 190.437 52.959,190.562 53.435,190.661 53.497 C 190.760 53.558,190.877 53.790,190.920 54.012 C 190.963 54.235,191.045 54.660,191.101 54.958 C 191.158 55.256,191.261 55.500,191.331 55.500 C 191.470 55.500,191.729 56.456,191.682 56.792 C 191.665 56.906,191.735 57.000,191.836 57.000 C 191.937 57.000,191.971 57.078,191.912 57.174 C 191.853 57.270,191.878 57.438,191.967 57.549 C 192.056 57.660,192.225 58.181,192.341 58.708 C 192.458 59.235,192.610 59.667,192.679 59.667 C 192.748 59.667,192.855 59.967,192.917 60.333 C 192.979 60.700,193.091 61.000,193.166 61.000 C 193.241 61.000,193.263 61.150,193.215 61.333 C 193.167 61.517,193.207 61.667,193.304 61.667 C 193.400 61.667,193.530 62.005,193.592 62.419 C 193.654 62.832,193.773 63.213,193.855 63.264 C 193.938 63.315,193.962 63.426,193.910 63.512 C 193.857 63.597,193.884 63.667,193.971 63.667 C 194.057 63.667,194.162 63.798,194.204 63.958 C 194.276 64.231,194.011 64.247,190.057 64.203 C 185.935 64.157,185.584 64.106,186.063 63.627 C 186.249 63.441,186.523 62.451,186.573 61.786 C 186.579 61.713,186.680 61.595,186.797 61.522 C 186.916 61.449,186.964 61.265,186.904 61.112 C 186.844 60.955,186.878 60.833,186.982 60.833 C 187.084 60.833,187.157 60.777,187.144 60.708 C 187.097 60.441,187.382 59.500,187.511 59.500 C 187.586 59.500,187.619 59.352,187.584 59.170 C 187.549 58.989,187.591 58.797,187.677 58.744 C 187.763 58.690,187.833 58.501,187.833 58.323 C 187.833 58.146,187.917 58.000,188.019 58.000 C 188.123 58.000,188.167 57.853,188.118 57.667 C 188.070 57.483,188.099 57.333,188.182 57.333 C 188.265 57.333,188.323 57.277,188.311 57.208 C 188.269 56.974,188.543 55.993,188.673 55.913 C 188.744 55.869,188.761 55.664,188.710 55.458 C 188.658 55.246,188.681 55.142,188.764 55.219 C 188.907 55.351,189.327 54.138,189.404 53.370 C 189.425 53.162,189.530 52.903,189.638 52.795 C 189.745 52.688,189.833 52.434,189.833 52.230 C 189.833 51.024,190.254 51.182,190.383 52.438 M296.667 52.787 C 296.438 52.830,296.160 52.940,296.049 53.030 C 295.938 53.121,295.766 53.145,295.667 53.083 C 295.567 53.022,295.395 53.041,295.284 53.126 C 295.174 53.212,294.727 53.378,294.292 53.496 C 293.856 53.614,293.500 53.769,293.500 53.842 C 293.500 53.914,293.267 54.025,292.982 54.087 C 292.658 54.158,292.363 54.381,292.191 54.683 C 292.040 54.948,291.851 55.165,291.771 55.166 C 291.691 55.166,291.719 55.054,291.833 54.917 C 292.184 54.495,291.873 54.639,291.367 55.134 C 291.104 55.391,290.791 55.569,290.671 55.529 C 290.551 55.489,290.498 55.528,290.551 55.615 C 290.605 55.702,290.507 55.875,290.333 56.000 C 290.160 56.125,290.056 56.289,290.102 56.364 C 290.148 56.439,290.081 56.500,289.952 56.500 C 289.824 56.500,289.583 56.650,289.417 56.833 C 289.251 57.017,289.160 57.167,289.215 57.167 C 289.270 57.167,289.094 57.408,288.824 57.704 C 288.554 57.999,288.324 58.337,288.313 58.454 C 288.270 58.889,288.244 58.947,287.958 59.232 C 287.798 59.392,287.620 59.817,287.563 60.175 C 287.501 60.560,287.388 60.784,287.287 60.721 C 287.186 60.659,287.166 60.697,287.239 60.815 C 287.306 60.925,287.289 61.105,287.201 61.216 C 287.112 61.326,286.995 61.717,286.941 62.083 C 286.887 62.450,286.799 63.012,286.747 63.333 C 286.552 64.519,286.641 68.120,286.885 68.917 C 286.941 69.100,287.031 69.475,287.086 69.750 C 287.233 70.496,287.251 70.555,287.444 70.917 C 287.543 71.100,287.674 71.531,287.736 71.875 C 287.798 72.219,287.911 72.500,287.987 72.500 C 288.064 72.500,288.219 72.725,288.333 73.000 C 288.447 73.275,288.597 73.500,288.667 73.500 C 288.736 73.500,288.885 73.722,288.998 73.994 C 289.110 74.266,289.250 74.473,289.309 74.454 C 289.368 74.436,289.695 74.701,290.036 75.044 C 290.377 75.386,290.610 75.667,290.554 75.667 C 290.498 75.667,290.796 75.929,291.216 76.250 C 291.636 76.571,292.060 76.833,292.157 76.833 C 292.254 76.833,292.333 76.908,292.333 77.000 C 292.333 77.092,292.399 77.167,292.480 77.167 C 292.560 77.167,292.916 77.293,293.271 77.448 C 293.626 77.602,293.973 77.715,294.042 77.698 C 294.110 77.681,294.167 77.732,294.167 77.812 C 294.167 77.892,294.539 78.006,294.993 78.067 C 295.448 78.127,295.862 78.244,295.913 78.328 C 296.037 78.528,296.097 78.531,299.667 78.542 C 302.952 78.551,303.857 78.507,303.755 78.341 C 303.720 78.285,303.817 78.230,303.971 78.220 C 304.124 78.210,304.438 78.157,304.667 78.104 C 304.896 78.050,305.290 77.961,305.543 77.906 C 305.796 77.851,305.968 77.751,305.926 77.682 C 305.884 77.614,306.215 77.465,306.662 77.351 C 307.108 77.236,307.515 77.036,307.565 76.905 C 307.615 76.774,307.757 76.667,307.879 76.667 C 308.157 76.667,309.667 75.278,309.667 75.022 C 309.667 74.918,309.749 74.833,309.850 74.833 C 310.106 74.833,311.000 73.848,311.000 73.566 C 311.000 73.438,311.094 73.333,311.208 73.332 C 311.370 73.330,311.902 72.411,312.075 71.833 C 312.089 71.787,312.270 71.386,312.478 70.942 C 312.686 70.498,312.820 70.038,312.775 69.921 C 312.730 69.803,312.759 69.641,312.841 69.559 C 312.922 69.478,313.007 69.169,313.030 68.872 C 313.052 68.576,313.119 68.333,313.178 68.333 C 313.237 68.333,313.275 67.852,313.263 67.263 C 313.249 66.630,313.304 66.232,313.396 66.289 C 313.541 66.378,313.437 63.911,313.251 62.833 C 313.041 61.617,312.775 60.683,312.660 60.754 C 312.588 60.799,312.550 60.641,312.576 60.404 C 312.604 60.154,312.527 59.936,312.392 59.884 C 312.265 59.835,312.171 59.710,312.183 59.606 C 312.247 59.080,312.159 58.754,312.016 58.981 C 311.909 59.149,311.837 59.062,311.748 58.657 C 311.614 58.045,311.278 57.618,311.076 57.800 C 311.005 57.864,310.997 57.829,311.058 57.722 C 311.120 57.615,311.060 57.417,310.926 57.283 C 310.792 57.149,310.735 56.981,310.800 56.910 C 310.864 56.838,310.831 56.829,310.727 56.889 C 310.621 56.949,310.404 56.795,310.240 56.545 C 309.834 55.924,309.334 55.404,309.328 55.594 C 309.325 55.680,309.246 55.617,309.151 55.453 C 308.899 55.021,306.503 53.520,306.497 53.791 C 306.496 53.860,306.438 53.827,306.369 53.719 C 306.300 53.610,306.019 53.474,305.746 53.418 C 304.950 53.254,304.927 53.247,304.700 53.106 C 304.581 53.031,304.362 53.017,304.214 53.074 C 304.065 53.131,303.884 53.082,303.811 52.964 C 303.679 52.750,297.661 52.601,296.667 52.787 M330.316 53.186 C 330.188 53.250,329.765 53.387,329.375 53.491 C 328.985 53.595,328.667 53.752,328.667 53.840 C 328.667 53.928,328.584 54.000,328.483 54.000 C 328.292 54.000,326.756 55.445,326.742 55.639 C 326.714 56.009,326.452 56.490,326.321 56.409 C 326.236 56.357,326.152 56.412,326.134 56.532 C 326.117 56.652,326.060 56.000,326.009 55.083 L 325.917 53.417 321.958 53.372 L 318.000 53.327 318.000 65.664 L 318.000 78.000 321.736 78.000 C 323.791 78.000,325.595 77.953,325.745 77.896 C 325.990 77.801,326.014 77.135,325.992 70.937 C 325.976 66.312,326.028 63.931,326.151 63.614 C 326.251 63.356,326.333 63.081,326.333 63.003 C 326.333 62.925,326.401 62.836,326.485 62.806 C 326.568 62.775,326.662 62.600,326.693 62.417 C 326.724 62.233,326.956 61.858,327.208 61.583 C 327.459 61.308,327.665 60.985,327.666 60.865 C 327.666 60.743,327.751 60.699,327.859 60.766 C 327.964 60.831,328.155 60.742,328.282 60.567 C 328.410 60.393,328.530 60.274,328.549 60.303 C 328.568 60.333,328.794 60.276,329.053 60.178 C 329.311 60.080,329.929 60.000,330.428 60.000 C 331.040 60.000,331.334 59.932,331.336 59.792 C 331.338 59.654,331.380 59.643,331.461 59.759 C 331.528 59.856,331.733 59.939,331.917 59.943 C 332.274 59.951,332.600 60.053,333.464 60.429 C 333.765 60.560,334.046 60.667,334.089 60.667 C 334.132 60.667,334.167 59.025,334.167 57.018 L 334.167 53.369 333.708 53.236 C 333.128 53.068,330.625 53.030,330.316 53.186 M209.935 61.545 C 209.945 66.061,209.999 69.905,210.056 70.087 C 210.112 70.268,210.194 70.927,210.238 71.550 C 210.281 72.173,210.433 72.916,210.575 73.200 C 210.717 73.485,210.833 73.819,210.833 73.942 C 210.833 74.066,210.916 74.167,211.018 74.167 C 211.119 74.167,211.159 74.281,211.105 74.420 C 211.051 74.560,211.156 74.822,211.337 75.004 C 211.518 75.185,211.667 75.375,211.667 75.426 C 211.667 75.597,212.500 76.745,212.505 76.580 C 212.508 76.490,212.587 76.549,212.682 76.712 C 212.776 76.874,212.926 76.962,213.014 76.908 C 213.103 76.853,213.154 76.908,213.129 77.029 C 213.104 77.151,213.177 77.231,213.292 77.208 C 213.406 77.185,213.500 77.242,213.500 77.333 C 213.500 77.425,213.604 77.500,213.732 77.500 C 213.860 77.500,214.005 77.605,214.054 77.734 C 214.104 77.863,214.393 78.022,214.697 78.087 C 215.001 78.152,215.340 78.278,215.451 78.367 C 215.562 78.456,215.725 78.484,215.815 78.428 C 215.904 78.373,216.021 78.400,216.075 78.487 C 216.231 78.738,221.319 78.627,221.478 78.369 C 221.549 78.253,221.777 78.126,221.984 78.086 C 222.706 77.947,223.004 77.808,222.909 77.655 C 222.857 77.570,222.963 77.500,223.147 77.500 C 223.558 77.500,225.869 75.200,225.722 74.937 C 225.651 74.809,225.676 74.803,225.801 74.918 C 225.903 75.010,226.007 75.722,226.034 76.501 L 226.083 77.917 230.042 77.950 L 234.000 77.983 234.000 65.658 L 234.000 53.333 230.000 53.333 L 226.000 53.333 225.996 60.875 C 225.992 67.919,225.970 68.481,225.665 69.394 C 225.485 69.932,225.373 70.430,225.417 70.500 C 225.461 70.571,225.340 70.670,225.148 70.720 C 224.956 70.770,224.844 70.883,224.899 70.971 C 224.953 71.060,224.886 71.175,224.750 71.227 C 224.614 71.279,224.352 71.568,224.168 71.869 C 223.985 72.170,223.834 72.325,223.834 72.214 C 223.833 72.000,223.416 72.089,223.034 72.386 C 222.769 72.592,220.438 72.536,220.361 72.322 C 220.331 72.237,220.210 72.167,220.092 72.167 C 219.842 72.167,218.651 71.251,218.644 71.053 C 218.641 70.978,218.574 70.839,218.494 70.743 C 218.063 70.224,217.979 68.608,217.994 61.125 L 218.010 53.333 213.963 53.333 L 209.917 53.334 209.935 61.545 M337.374 65.625 L 337.417 77.917 341.292 77.961 L 345.167 78.006 345.167 65.670 L 345.167 53.333 341.249 53.333 L 337.331 53.333 337.374 65.625 M366.667 53.493 C 366.667 53.589,366.742 53.667,366.833 53.667 C 366.925 53.667,367.000 53.798,367.001 53.958 C 367.002 54.119,367.106 54.449,367.233 54.692 C 367.360 54.935,367.556 55.423,367.670 55.776 C 367.784 56.128,367.951 56.510,368.042 56.625 C 368.133 56.740,368.142 56.834,368.062 56.836 C 367.982 56.837,367.995 56.894,368.091 56.961 C 368.188 57.028,368.362 57.411,368.479 57.813 C 368.597 58.214,368.839 58.698,369.017 58.890 C 369.195 59.082,369.305 59.335,369.259 59.452 C 369.214 59.570,369.243 59.667,369.323 59.667 C 369.403 59.667,369.430 59.817,369.382 60.000 C 369.334 60.183,369.375 60.333,369.473 60.333 C 369.571 60.333,369.701 60.596,369.761 60.917 C 369.821 61.237,369.935 61.500,370.013 61.500 C 370.092 61.500,370.113 61.612,370.060 61.750 C 370.008 61.887,370.039 62.000,370.131 62.000 C 370.222 62.000,370.349 62.205,370.412 62.456 C 370.474 62.706,370.708 63.309,370.930 63.794 C 371.152 64.279,371.333 64.750,371.333 64.841 C 371.333 64.931,371.408 65.135,371.500 65.294 C 371.742 65.715,372.058 66.563,372.027 66.708 C 372.012 66.777,372.061 66.833,372.135 66.833 C 372.209 66.833,372.366 67.208,372.484 67.667 C 372.601 68.125,372.750 68.468,372.814 68.428 C 372.878 68.389,372.941 68.482,372.953 68.637 C 372.965 68.791,373.067 69.142,373.181 69.417 C 373.294 69.692,373.375 69.973,373.360 70.042 C 373.345 70.110,373.401 70.167,373.483 70.167 C 373.566 70.167,373.723 70.542,373.833 71.000 C 373.943 71.458,374.087 71.833,374.153 71.833 C 374.219 71.833,374.375 72.208,374.500 72.667 C 374.625 73.125,374.785 73.500,374.856 73.500 C 374.927 73.500,375.034 73.760,375.093 74.078 C 375.153 74.396,375.344 74.820,375.518 75.020 C 375.691 75.220,375.833 75.560,375.833 75.776 C 375.833 75.991,375.913 76.167,376.010 76.167 C 376.107 76.167,376.140 76.242,376.083 76.333 C 376.027 76.425,376.081 76.500,376.204 76.500 C 376.506 76.500,376.475 78.476,376.170 78.665 C 376.053 78.737,376.009 78.879,376.072 78.981 C 376.135 79.083,376.113 79.167,376.023 79.167 C 375.864 79.167,375.567 80.112,375.639 80.387 C 375.659 80.463,375.604 80.481,375.518 80.428 C 375.431 80.374,375.274 80.591,375.169 80.910 C 375.064 81.228,374.758 81.674,374.489 81.900 C 374.220 82.127,374.000 82.392,374.000 82.489 C 374.000 82.587,373.867 82.667,373.704 82.667 C 373.541 82.667,373.243 82.782,373.042 82.922 C 372.603 83.230,370.199 83.322,370.023 83.038 C 369.961 82.937,369.708 82.828,369.462 82.795 C 369.215 82.762,368.960 82.682,368.895 82.617 C 368.684 82.406,368.205 82.494,368.101 82.764 C 367.803 83.541,367.997 88.833,368.323 88.833 C 368.501 88.833,368.688 88.899,368.737 88.979 C 368.865 89.186,369.229 89.208,372.417 89.211 C 375.762 89.213,375.780 89.212,375.897 88.908 C 375.952 88.765,376.099 88.715,376.271 88.781 C 376.452 88.850,376.514 88.825,376.444 88.711 C 376.373 88.596,376.454 88.563,376.666 88.618 C 376.860 88.669,377.000 88.624,377.000 88.510 C 377.000 88.402,377.067 88.355,377.149 88.406 C 377.231 88.457,377.342 88.385,377.395 88.247 C 377.447 88.110,377.549 88.010,377.620 88.025 C 377.820 88.068,378.360 87.804,378.670 87.513 C 378.824 87.368,379.147 87.109,379.388 86.937 C 379.630 86.765,379.789 86.563,379.742 86.487 C 379.696 86.412,379.812 86.268,380.000 86.167 C 380.188 86.066,380.307 85.926,380.264 85.856 C 380.220 85.785,380.397 85.602,380.657 85.449 C 380.917 85.295,381.177 84.981,381.235 84.751 C 381.292 84.521,381.404 84.333,381.483 84.333 C 381.562 84.333,381.719 84.108,381.833 83.833 C 381.947 83.558,382.094 83.333,382.161 83.333 C 382.227 83.333,382.370 83.033,382.480 82.667 C 382.590 82.300,382.760 82.000,382.858 82.000 C 382.956 82.000,382.992 81.887,382.940 81.750 C 382.887 81.612,382.916 81.500,383.005 81.500 C 383.094 81.500,383.167 81.283,383.167 81.018 C 383.167 80.753,383.263 80.499,383.380 80.454 C 383.498 80.409,383.692 79.988,383.812 79.519 C 383.932 79.050,384.086 78.667,384.154 78.667 C 384.279 78.667,384.319 78.506,384.382 77.750 C 384.401 77.521,384.473 77.333,384.542 77.333 C 384.610 77.333,384.667 77.179,384.667 76.990 C 384.667 76.801,384.732 76.688,384.813 76.737 C 384.893 76.787,385.056 76.472,385.175 76.039 C 385.294 75.605,385.486 75.100,385.602 74.917 C 385.791 74.619,385.947 73.986,385.986 73.365 C 385.994 73.245,386.069 73.190,386.154 73.242 C 386.239 73.295,386.401 72.924,386.514 72.419 C 386.627 71.913,386.795 71.500,386.888 71.500 C 386.980 71.500,387.006 71.451,386.946 71.390 C 386.886 71.330,386.906 71.196,386.992 71.093 C 387.077 70.991,387.186 70.690,387.234 70.425 C 387.282 70.160,387.416 69.885,387.531 69.814 C 387.646 69.743,387.689 69.634,387.627 69.572 C 387.565 69.509,387.695 69.118,387.917 68.702 C 388.138 68.286,388.284 67.888,388.240 67.818 C 388.197 67.747,388.237 67.643,388.331 67.585 C 388.424 67.527,388.500 67.335,388.500 67.157 C 388.500 66.979,388.583 66.833,388.685 66.833 C 388.796 66.833,388.830 66.676,388.770 66.436 C 388.707 66.184,388.761 65.962,388.918 65.832 C 389.055 65.719,389.167 65.489,389.167 65.323 C 389.167 65.156,389.247 64.970,389.345 64.910 C 389.443 64.849,389.482 64.695,389.433 64.566 C 389.384 64.438,389.415 64.333,389.502 64.333 C 389.589 64.333,389.710 64.127,389.770 63.875 C 389.830 63.623,389.950 63.326,390.037 63.216 C 390.124 63.105,390.150 62.941,390.095 62.852 C 390.040 62.763,390.072 62.642,390.167 62.583 C 390.261 62.525,390.296 62.407,390.243 62.322 C 390.190 62.236,390.226 62.167,390.323 62.167 C 390.421 62.167,390.500 62.017,390.500 61.833 C 390.500 61.650,390.584 61.500,390.686 61.500 C 390.794 61.500,390.839 61.327,390.794 61.088 C 390.750 60.862,390.778 60.716,390.854 60.763 C 390.931 60.810,391.042 60.545,391.101 60.175 C 391.161 59.804,391.269 59.500,391.342 59.500 C 391.415 59.500,391.561 59.219,391.666 58.875 C 391.772 58.531,391.903 58.137,391.957 58.000 C 392.010 57.862,392.067 57.712,392.083 57.667 C 392.099 57.621,392.199 57.372,392.306 57.114 C 392.413 56.856,392.500 56.537,392.500 56.406 C 392.500 56.274,392.583 56.167,392.685 56.167 C 392.801 56.167,392.830 55.997,392.763 55.708 C 392.692 55.403,392.708 55.327,392.810 55.480 C 392.921 55.646,392.996 55.519,393.080 55.022 C 393.144 54.643,393.277 54.333,393.376 54.333 C 393.475 54.333,393.510 54.288,393.455 54.233 C 393.400 54.178,393.423 53.953,393.507 53.733 L 393.658 53.333 389.703 53.333 L 385.748 53.333 385.529 53.958 C 385.409 54.302,385.297 54.733,385.280 54.917 C 385.264 55.100,385.196 55.290,385.130 55.340 C 385.065 55.389,384.992 55.671,384.970 55.965 C 384.947 56.259,384.874 56.500,384.806 56.500 C 384.644 56.500,384.335 57.623,384.334 58.218 C 384.334 58.476,384.270 58.647,384.192 58.599 C 384.114 58.551,383.955 58.940,383.839 59.464 C 383.723 59.988,383.519 60.630,383.385 60.890 C 383.252 61.150,383.180 61.462,383.226 61.582 C 383.273 61.702,383.263 61.848,383.204 61.907 C 383.146 61.965,383.072 62.214,383.039 62.460 C 383.006 62.707,382.891 63.014,382.783 63.144 C 382.598 63.367,382.223 64.522,382.099 65.250 C 382.068 65.433,382.024 65.602,382.000 65.625 C 381.977 65.648,381.942 65.723,381.923 65.792 C 381.863 66.006,381.643 66.569,381.484 66.917 C 381.400 67.100,381.308 67.478,381.280 67.758 C 381.252 68.037,381.173 68.355,381.104 68.466 C 381.036 68.576,381.031 68.667,381.093 68.667 C 381.154 68.667,381.077 68.862,380.921 69.100 C 380.765 69.339,380.671 69.664,380.712 69.823 C 380.754 69.981,380.704 70.111,380.602 70.111 C 380.499 70.111,380.401 69.779,380.382 69.361 C 380.363 68.949,380.278 68.568,380.194 68.514 C 380.109 68.461,379.945 67.988,379.828 67.464 C 379.712 66.940,379.553 66.551,379.475 66.599 C 379.397 66.647,379.333 66.457,379.333 66.177 C 379.333 65.896,379.263 65.667,379.178 65.667 C 379.092 65.667,379.055 65.484,379.096 65.261 C 379.136 65.037,379.097 64.810,379.009 64.755 C 378.920 64.701,378.895 64.534,378.952 64.384 C 379.016 64.217,378.989 64.154,378.883 64.219 C 378.775 64.286,378.667 64.009,378.599 63.497 C 378.538 63.040,378.411 62.667,378.316 62.667 C 378.220 62.667,378.191 62.520,378.250 62.333 C 378.321 62.108,378.280 62.000,378.122 62.000 C 377.994 62.000,377.878 61.906,377.864 61.792 C 377.760 60.921,377.701 60.369,377.683 60.083 C 377.665 59.805,377.635 59.792,377.500 60.000 C 377.374 60.196,377.338 60.153,377.336 59.803 C 377.334 59.556,377.247 59.144,377.141 58.886 C 377.035 58.628,376.965 58.281,376.986 58.115 C 377.007 57.949,376.953 57.724,376.865 57.615 C 376.777 57.506,376.650 57.154,376.583 56.833 C 376.516 56.512,376.386 56.156,376.294 56.042 C 376.201 55.927,376.191 55.832,376.271 55.831 C 376.351 55.829,376.321 55.768,376.204 55.693 C 376.087 55.619,375.961 55.315,375.923 55.017 C 375.885 54.720,375.756 54.355,375.636 54.206 C 375.450 53.977,375.454 53.958,375.667 54.083 C 375.880 54.209,375.884 54.191,375.694 53.956 C 375.572 53.805,375.516 53.610,375.570 53.522 C 375.631 53.423,373.977 53.355,371.167 53.341 C 368.147 53.327,366.667 53.377,366.667 53.493 M133.298 55.811 C 133.329 55.904,133.448 55.945,133.563 55.901 C 133.677 55.858,133.874 56.014,134.000 56.250 C 134.126 56.486,134.327 56.641,134.446 56.595 C 134.565 56.549,134.652 56.566,134.638 56.631 C 134.602 56.805,134.861 57.362,135.116 57.659 C 135.237 57.801,135.334 57.974,135.331 58.043 C 135.329 58.113,135.447 58.403,135.594 58.687 C 135.770 59.027,135.789 59.159,135.652 59.074 C 135.499 58.980,135.478 59.030,135.574 59.264 C 135.646 59.440,135.727 59.808,135.754 60.083 C 135.780 60.358,135.828 60.696,135.859 60.833 C 135.909 61.050,135.266 61.089,130.963 61.127 C 127.027 61.163,126.023 61.128,126.078 60.961 C 126.117 60.845,126.182 60.467,126.223 60.122 C 126.264 59.777,126.399 59.368,126.524 59.215 C 126.718 58.976,126.714 58.954,126.500 59.064 C 126.351 59.140,126.367 59.096,126.539 58.954 C 126.698 58.824,126.795 58.684,126.754 58.643 C 126.713 58.602,126.865 58.354,127.090 58.092 C 127.316 57.830,127.500 57.536,127.500 57.439 C 127.500 57.342,127.706 57.086,127.958 56.869 C 128.210 56.653,128.323 56.523,128.208 56.581 C 128.094 56.639,128.000 56.641,128.000 56.584 C 128.000 56.528,128.225 56.404,128.500 56.308 C 128.775 56.212,129.000 56.029,129.000 55.900 C 129.000 55.772,129.079 55.667,129.177 55.667 C 129.274 55.667,129.297 55.760,129.228 55.875 C 129.132 56.034,129.160 56.039,129.343 55.897 C 129.980 55.405,133.140 55.336,133.298 55.811 M301.653 58.915 C 302.119 58.979,302.464 59.091,302.419 59.163 C 302.344 59.284,302.932 59.555,303.197 59.522 C 303.260 59.514,303.472 59.768,303.669 60.087 C 303.866 60.406,304.096 60.667,304.180 60.667 C 304.264 60.667,304.333 60.807,304.333 60.980 C 304.333 61.152,304.446 61.386,304.583 61.500 C 304.721 61.614,304.833 61.836,304.833 61.993 C 304.833 62.149,304.887 62.332,304.953 62.398 C 305.110 62.554,305.169 63.264,305.168 64.991 C 305.168 65.933,305.237 66.441,305.376 66.530 C 305.538 66.633,305.536 66.662,305.365 66.664 C 305.245 66.666,305.188 66.733,305.238 66.814 C 305.288 66.895,305.259 67.177,305.174 67.439 C 305.088 67.702,304.984 68.208,304.941 68.564 C 304.899 68.920,304.763 69.275,304.640 69.353 C 304.458 69.469,304.457 69.495,304.637 69.497 C 304.802 69.499,304.792 69.565,304.595 69.762 C 304.451 69.906,304.333 70.133,304.333 70.267 C 304.333 70.401,304.221 70.553,304.084 70.606 C 303.947 70.659,303.877 70.769,303.927 70.851 C 303.978 70.933,303.954 71.000,303.875 71.000 C 303.795 71.000,303.484 71.241,303.182 71.535 C 302.881 71.830,302.437 72.097,302.196 72.130 C 301.954 72.162,301.710 72.263,301.653 72.355 C 301.479 72.636,298.818 72.568,298.250 72.267 C 297.975 72.121,297.659 72.002,297.548 72.001 C 297.437 72.000,297.198 71.840,297.016 71.645 C 296.830 71.446,296.575 71.333,296.434 71.387 C 296.270 71.450,296.213 71.406,296.270 71.259 C 296.317 71.135,296.187 70.876,295.980 70.684 C 295.773 70.491,295.578 70.165,295.547 69.958 C 295.516 69.752,295.418 69.558,295.329 69.528 C 295.239 69.497,295.167 69.345,295.167 69.190 C 295.167 69.035,295.050 68.741,294.907 68.537 C 294.733 68.288,294.712 68.167,294.844 68.167 C 294.980 68.167,294.989 68.102,294.873 67.958 C 294.781 67.844,294.733 67.380,294.765 66.929 C 294.798 66.477,294.762 66.027,294.685 65.929 C 294.496 65.687,294.517 65.157,294.710 65.277 C 294.801 65.333,294.841 64.958,294.807 64.368 C 294.776 63.816,294.806 63.399,294.875 63.442 C 294.944 63.485,295.000 63.258,295.000 62.938 C 295.000 62.619,295.094 62.256,295.208 62.133 C 295.323 62.010,295.441 61.798,295.470 61.663 C 295.499 61.527,295.647 61.229,295.798 61.000 C 295.950 60.771,296.051 60.508,296.023 60.417 C 295.995 60.325,296.023 60.301,296.085 60.362 C 296.146 60.424,296.453 60.212,296.765 59.890 C 297.078 59.568,297.336 59.367,297.339 59.444 C 297.342 59.521,297.438 59.460,297.553 59.309 C 297.938 58.802,299.644 58.638,301.653 58.915 " stroke="none" fill="#fff" fill-rule="evenodd"></path><path id="path1" d="M345.246 65.583 C 345.246 72.367,345.266 75.117,345.292 71.696 C 345.317 68.275,345.317 62.725,345.292 59.363 C 345.266 56.001,345.246 58.800,345.246 65.583 M209.910 60.833 C 209.910 64.912,209.932 66.581,209.958 64.542 C 209.985 62.502,209.985 59.165,209.958 57.125 C 209.932 55.085,209.910 56.754,209.910 60.833 M366.235 56.167 C 366.235 57.679,366.260 58.298,366.291 57.542 C 366.322 56.785,366.322 55.548,366.291 54.792 C 366.260 54.035,366.235 54.654,366.235 56.167 M13.625 54.339 C 13.849 54.428,14.151 54.428,14.375 54.339 C 14.681 54.215,14.612 54.188,14.000 54.188 C 13.388 54.188,13.319 54.215,13.625 54.339 M16.125 54.339 C 16.349 54.428,16.651 54.428,16.875 54.339 C 17.181 54.215,17.112 54.188,16.500 54.188 C 15.888 54.188,15.819 54.215,16.125 54.339 M18.359 54.248 C 18.497 54.386,19.843 54.453,19.921 54.327 C 19.955 54.271,19.595 54.208,19.121 54.186 C 18.646 54.164,18.303 54.192,18.359 54.248 M29.000 54.231 C 29.000 54.379,29.674 54.456,29.760 54.318 C 29.811 54.235,29.661 54.167,29.427 54.167 C 29.192 54.167,29.000 54.195,29.000 54.231 M326.460 55.994 C 326.306 56.174,326.241 56.360,326.316 56.406 C 326.390 56.452,326.536 56.304,326.639 56.078 C 326.865 55.581,326.829 55.564,326.460 55.994 M24.976 57.876 C 25.060 57.960,25.306 58.000,25.522 57.966 C 25.856 57.914,25.833 57.890,25.370 57.814 C 25.039 57.759,24.883 57.783,24.976 57.876 M135.667 60.760 C 135.667 60.994,135.735 61.144,135.818 61.093 C 135.901 61.042,135.930 60.850,135.882 60.667 C 135.762 60.208,135.667 60.249,135.667 60.760 M294.545 65.508 C 294.532 65.683,294.591 65.870,294.677 65.923 C 294.763 65.976,294.833 65.870,294.833 65.686 C 294.833 65.252,294.576 65.093,294.545 65.508 M7.261 65.816 C 7.210 65.898,7.322 66.142,7.510 66.358 L 7.852 66.750 7.641 66.333 C 7.524 66.104,7.445 65.860,7.465 65.792 C 7.514 65.618,7.373 65.635,7.261 65.816 M187.114 70.458 C 188.690 70.485,191.315 70.485,192.948 70.458 C 194.581 70.431,193.292 70.408,190.083 70.408 C 186.875 70.408,185.539 70.431,187.114 70.458 M141.735 73.417 C 141.735 74.975,141.760 75.635,141.791 74.883 C 141.821 74.131,141.821 72.856,141.791 72.050 C 141.760 71.243,141.735 71.858,141.735 73.417 M15.045 72.158 C 15.064 72.402,15.123 72.439,15.283 72.306 C 15.400 72.209,15.455 72.062,15.405 71.981 C 15.241 71.716,15.020 71.825,15.045 72.158 M366.117 74.952 C 366.160 78.536,366.298 78.641,366.325 75.110 C 366.337 73.598,366.287 72.324,366.215 72.280 C 366.142 72.235,366.098 73.438,366.117 74.952 M18.404 77.782 C 18.429 77.948,18.504 78.071,18.571 78.056 C 18.825 77.998,18.834 77.875,18.601 77.681 C 18.405 77.519,18.368 77.538,18.404 77.782 M18.947 78.731 C 18.893 78.873,18.914 79.030,18.996 79.081 C 19.208 79.212,19.335 78.939,19.179 78.686 C 19.075 78.519,19.025 78.529,18.947 78.731 M16.106 81.750 C 16.147 81.857,16.283 81.944,16.408 81.944 C 16.533 81.944,16.601 81.857,16.560 81.750 C 16.519 81.643,16.384 81.556,16.259 81.556 C 16.134 81.556,16.065 81.643,16.106 81.750 M52.998 82.333 C 52.866 82.604,52.898 83.168,53.038 83.029 C 53.126 82.941,53.162 82.730,53.118 82.559 C 53.075 82.389,53.020 82.287,52.998 82.333 M19.695 87.549 C 19.563 87.708,19.602 87.896,19.840 88.258 C 20.018 88.528,20.165 88.661,20.166 88.552 C 20.166 88.442,20.085 88.302,19.984 88.240 C 19.884 88.178,19.836 87.949,19.878 87.730 C 19.965 87.274,19.942 87.251,19.695 87.549 M42.431 93.441 C 42.272 93.854,42.447 93.911,42.659 93.514 C 42.761 93.323,42.776 93.167,42.690 93.167 C 42.605 93.167,42.488 93.290,42.431 93.441 M39.880 98.042 C 39.572 98.440,39.481 98.667,39.630 98.667 C 39.712 98.667,39.865 98.479,39.970 98.250 C 40.175 97.799,40.137 97.710,39.880 98.042 M26.206 99.400 C 26.365 99.519,26.440 99.677,26.372 99.752 C 26.305 99.826,26.344 99.833,26.458 99.767 C 26.776 99.584,26.708 99.383,26.292 99.278 C 25.952 99.192,25.944 99.204,26.206 99.400 M38.782 99.819 C 38.622 100.139,38.605 100.283,38.731 100.234 C 39.023 100.122,39.348 99.529,39.176 99.423 C 39.094 99.372,38.916 99.550,38.782 99.819 M42.460 101.328 C 42.306 101.508,42.241 101.693,42.316 101.739 C 42.390 101.785,42.536 101.638,42.639 101.411 C 42.865 100.914,42.829 100.897,42.460 101.328 M31.944 109.472 C 31.975 109.594,32.000 109.725,32.000 109.764 C 32.000 109.802,32.075 109.833,32.167 109.833 C 32.258 109.833,32.333 109.716,32.333 109.573 C 32.333 109.431,32.265 109.356,32.181 109.408 C 32.097 109.460,31.997 109.445,31.958 109.376 C 31.920 109.307,31.913 109.350,31.944 109.472 " stroke="none" fill="#fff" fill-rule="evenodd"></path><path id="path2" d="" stroke="none" fill="#fff" fill-rule="evenodd"></path><path id="path3" d="" stroke="none" fill="#fff" fill-rule="evenodd"></path><path id="path4" d="" stroke="none" fill="#fff" fill-rule="evenodd"></path></g></svg>